<svg id="e0C4XLeKwTr1" xmlns="http://www.w3.org/2000/svg" xmlns:xlink="http://www.w3.org/1999/xlink" viewBox="0 0 636 780" shape-rendering="geometricPrecision" text-rendering="geometricPrecision" width="636" height="780"><g transform="translate(-85.399384 26.551433)" clip-path="url(#e0C4XLeKwTr280)"><g><g><g transform="translate(440.395 537.592)"><path id="e0C4XLeKwTr6" d="M109.844841,-11.264c10.652,0,14.937004,4.651,5.142006,6.489-9.795006,1.836-28.51638,4.284-19.08738,5.265c9.429001.978,47.296532-.981,52.928536,5.265C154.339005,11.999,12.795,12.856,-17.694,12.856c-30.487999,0-68.322998-.122-105.668-5.02-20.326004-2.695-30.977996-13.713-15.917999-15.672c36.733002-5.02,238.350846-3.428,249.12484-3.428Z" transform="matrix(.8864-.011625 0.013114 0.999914 0.139837 0.015275)" fill="#c5c5ff"/></g></g><g clip-path="url(#e0C4XLeKwTr74)"><g id="e0C4XLeKwTr8"><g><g transform="translate(604.531 559.446)"><path d="M17.388,-8.266c1.959.123,4.651,2.939,3.671999,5.755C18.365999,4.713,10.162,8.999,-2.082,8.508c-19.223-.734-19.957-13.223-11.264-15.427c7.469-2.08,28.775-1.469,30.734-1.347Z" fill="#c5c5ff"/></g></g><g><g transform="translate(610.776 552.105)"><path d="M9.919,-6.795c0,0-13.225-1.347-13.225-1.347s-10.897,7.101-10.897,7.101s6.49,8.326,6.49,8.326s13.591.857,13.591.857s8.325-7.345,8.325-7.345-4.284-7.592-4.284-7.592ZM0.489,3.367c-2.081,0-3.795-.733-5.02-1.714c1.102-1.224,3.184-2.081,5.633-2.081c2.081,0,3.795.734,5.021,1.714-.981,1.225-3.185,2.081-5.634,2.081Z" fill="#aaafd6"/></g><g transform="translate(599.939 558.347)"><path d="M-3.367,-7.408c0,0,1.102,9.184,1.102,9.184s5.631,5.632,5.631,5.632-.366-6.49-.366-6.49-6.367-8.326-6.367-8.326Z" fill="#6266f0"/></g><g transform="translate(609.797 562.941)"><path d="M-6.49,2.816c0,0,13.347.857,13.347.857s-.123-6.489-.123-6.489-13.591-.857-13.591-.857.367,6.489.367,6.489Z" fill="#9099ce"/></g><g transform="translate(620.693 559.699)"><path d="M4.163,-6.918c0,0-.367,6.245-.367,6.245s-7.836,7.591-7.836,7.591-.123-6.489-.123-6.489s8.326-7.347,8.326-7.347Z" fill="#d6d6ff"/></g><g transform="translate(611.386 550.451)"><path d="M6.367,1.102c0,.734-.245,1.347-.735,1.836-1.102-.979-2.938-1.714-5.02-1.714-2.448,0-4.53.735-5.632,2.082-.857-.735-1.347-1.592-1.224-2.571c0-2.204,2.938-4.041,6.489-3.918c3.307.122,6.122,1.959,6.122,4.285Z" fill="#6266f0"/></g></g><g><g transform="translate(534.797 619.746)"><path d="M68.751999,-12.366c0,0-112.035,53.628001-112.035,53.628001s-9.795998,2.448998-17.876999-4.285c-1.591999-1.225002-3.061001-2.816002-4.408001-4.898002C-69.486,26.08,-70.466003,20.815001,-70.221001,16.774c.245003-4.408,1.713997-7.224,1.713997-7.224s118.526005-52.892999,118.526005-52.892999s6.121998-.368,11.508999,2.938c2.081001,1.347,4.040001,3.183998,5.510002,5.876999c1.713997,3.061001,2.448998,6.367001,2.693001,9.551001.735,6.855999-.979004,12.610999-.979004,12.610999Z" fill="#9099ce"/></g><g transform="translate(530.512 606.339)"><path d="M65.934998,-26.875c0,0-131.870995,57.056999-131.870995,57.056999C-65.691002,25.774,-64.222,22.958,-64.222,22.958s118.525001-52.896,118.525001-52.896c.121998.124001,6.244-.243,11.631997,3.063Z" fill="#d6d6ff"/></g><g transform="translate(533.207 624.948)"><path d="M70.344002,-17.570999c0,0,1.713997-5.754002,1.102997-12.488001c0,0-18.25,8.613001-18.25,8.613001-.605999-2.969002-1.765-6.283001-3.914998-9.592001-6.613002-10.162001-15.183002-8.938002-15.551002-8.938002-1.347.245003-2.202999,1.468003-1.959,2.694001.244999,1.346,1.469002,2.204002,2.694001,1.958999.122001,0,5.876999-.856998,10.897998,6.856003c2.061001,3.164999,3.026001,6.358999,3.446003,9.091c0,0-25.954,12.248999-25.954,12.248999-.580002-3.095-1.761002-6.595-4.065001-10.073001-6.856-10.285-15.426-8.937999-15.794-8.937999-1.225.245-2.204,1.468999-1.959,2.694.245,1.224001,1.469,2.080999,2.693,1.958999.245,0,6.122-.734998,11.142,6.856001c2.193999,3.367,3.145999,6.767,3.52,9.608c0,0-27.768,13.104-27.768,13.104-.679-3.034-1.933-6.396-4.16-9.735-7.101-10.652-16.284-9.306-16.652-9.306-1.223999.245-2.202999,1.47-1.959,2.694.245001,1.224,1.469,2.204,2.694,1.959c0,0,6.489001-.857,11.999001,7.346C-15.371,4.209,-14.331,7.408,-13.841,10.192c0,0-25.920002,12.232-25.920002,12.232-.727996-3.487-2.354-7.576-5.482997-12.2C-54.304001,-3.122,-66.916,4.47,-66.916,4.47c-3.918999,5.754-5.141999,14.692001,2.817001,25.711999c8.202,11.018002,22.282997,5.999001,22.282997,5.999001s.030003-.037998.083-.112999c.025002-.006001.041001-.010002.041001-.010002s30.504001-14.602,30.504001-14.602c.449-.071998.862-.274,1.211-.578998c0,0,80.321002-38.448,80.321002-38.448Z" fill="#6266f0"/></g></g><g><g transform="translate(384.845 639.92)"><path d="M48.465,8.759c0,.491,0,.981-.118999,1.35c0,.011-.010002.021-.010002.03c0,.021-.009999.041-.009999.062-.02.09-.040001.169-.060001.238-.98,3.92-3.670998,3.181-6.730999,2.2-1-.36-4.349999-2.229-8.560002-4.67-.669998-.469-1.368997-.95-2.098999-1.45-.439998-.319-.951-.67-1.539999-1.059-5.831001-3.431-12.35-7.361-16.44-9.821-.02-.009-.03-.019-.05-.03-3.27-1.859-6.35-3.59-8.7-4.899-.04-.031-.08-.05-.12-.071.04.021.09.041.13.062.05-.07.099-.152.15-.222.79-1.16,1.53-2.309,2.22-3.439c8.769,5.3,33.3,19.79,37.410001,21.229c1.669998.481,3.098999.601,4.418999.5.04,0,.069999-.01.11-.01ZM23.165001,19.379999C19.975,18.540001,5.565,10.25,-5.085,4.149c-.02-.01-.04-.029-.06-.04.01-.01.011-.019.021-.029-.13-.061-.26-.12-.39-.181-2.76-1.26-7-3.39-10.639999-5.38-.270001-.149-.551001-.3-.810002-.45-.84-.46-1.640999-.92-2.361999-1.34-13.569-7.7-20.429001-12.469-27.880001-20.778-.018997-.010999-.028-.031-.038998-.041-.849003,1.84-.979,2.939001-.979,2.939001s-.111.441-.171001,1.129999c-.029999.230999-.038998.49-.049.771-.020001.290001-.020001.610001.010002.951.059997,1.459999.438999,3.259,1.679996,4.738C-44.674,-10.991,-36.584,-4.62,-27.164,0.889c8.48,4.96,16.66,7.63,18.22,8.12.23.111.479.241.738.361.551.269,1.13.569,1.75.87.771.39,1.581.789,2.431,1.22.85.429,1.74.87,2.651,1.319.37.19.73.37,1.11.551c5.939,2.960001,12.669,6.278999,17.049,8.319c1.229999.57,2.280001,1.051001,3.07,1.379999.17.070002.340999.141001.491001.200001.149999.061001.289999.110001.408998.16.181002.070999.331001.129999.451.16.180001.040001.360001.080999.540001.121.529999.129,1.048001.24,1.539.309.200001.030001.389999.061001.590999.07.379.040001.749001.040001,1.099001-.008999.199-.021002.39-.061001.569001-.120001.17-.049999.330999-.121.490999-.201.16-.089001.311001-.190001.451-.309.559-.49.978001-1.301001,1.209-2.560999c0,0,0-1.34,0-1.34-1.230999.240999-2.691.240999-4.529999-.129002Zm13.431-2.660999C32.655998,15.339,10.036,2.029,0.406,-3.771c-.74,1.08-1.441,2.111-2.1,3.07C5.396,3.219,13.615,7.8,17.285,9.951c4.290001,2.659,7.561001,4.478,9.211,6.598.16.201.31.410999.440001.621c3.589998,2.07,6.358997,3.598999,7.25,3.919001c3.059997.979999,5.749,1.719999,6.729-2.200001.040001-.098999.061001-.209999.080997-.33c0,0,0-.018999,0-.018999.130001-.370001.130001-.851002.130001-1.330002-.029998,0-.061.009001-.090999.009001-1.209999.1-2.648998-.018999-4.438999-.5Zm6.470001-16.65c.688999-.05,1.299999-.279,1.809997-.819.07-.061.129002-.13.190003-.21.119999-.151.228996-.321.339996-.521.210003-.38.389-.849.530003-1.42.130001-.37.130001-.859.130001-1.349-1.230003.13-3.920002-1.221-6.130001-2.571-9.75-6.259-22.700001-11.570001-28.600001-15.12-.44.950001-.95,1.99-1.51,3.09c6.67,3.271,23.759999,11.761,29.130001,15.58c1.549,1.09,2.919998,2.21,4.110001,3.34Z" fill="#131021"/></g><g transform="translate(385.42 629.425)"><path d="M47.780998,19.264999c-1.319999.101-2.75-.019998-4.419998-.5C39.250999,17.326,14.72,2.835,5.951,-2.464C5.26,-1.335,4.52,-0.185,3.73,0.975c-.051.07-.099.15-.149.221-.04-.021-.09-.04-.13-.061.04.021.079.04.119.07c2.35,1.31,5.431,3.04,8.701,4.9.02.011.029.02.049.03c4.09,2.46,10.609001,6.39,16.439001,9.82.59.389999,1.101999.740999,1.542,1.059999.729999.5,1.43.980002,2.1,1.450001c4.77,3.369999,7.858997,6.150999,8.059998,9.25-1.21.100001-2.649998-.019001-4.439999-.5-3.939999-1.380001-26.56-14.69-36.19-20.49-.74,1.08-1.442,2.11-2.101,3.07c7.09,3.92,15.311,8.5,18.981,10.650999c4.289999,2.659001,7.56,4.479,9.21,6.599001.159999.200001.310001.41.44.620001.440001.719999.700001,1.479999.76,2.33c0,0,0,.009998,0,.009998-1.231001.240002-2.691.240002-4.53-.129999-3.190001-.84-17.6-9.129999-28.25-15.23-.02-.01-.04-.029-.06-.04.01-.01.01-.02.02-.029-.13-.061-.261-.121-.391-.181-2.76-1.26-6.999-3.39-10.639-5.38-.270001-.149-.551001-.3-.81-.45-.84-.46-1.640001-.92-2.361-1.34-13.569002-7.7-20.428999-12.47-27.879999-20.779.990998-2.071,2.820999-4.981,6.330998-8.241c6.86-6.25,13.35-8.450001,13.35-8.450001s41.500001,12.370001,41.500001,12.370001-.012.02-.021.049999c1.379.611,16.259999,7.271001,22.681001,11.700001c6,4.17,9.43,8.701,9.43,12.37-1.231003.13-3.920002-1.22-6.130001-2.57-9.75-6.26-22.701-11.57-28.602-15.12-.439.95-.948,1.99-1.508,3.09c6.67,3.27,23.757999,11.761,29.129001,15.58c1.549,1.09,2.920998,2.21,4.111,3.34c3.209999,3.02,5.079998,6.07,5.289997,8.699999Z" fill="#3d4264"/></g></g><g><g transform="translate(471.432 570.16)"><path d="M-7.959,18.733c-.857,0-1.836-.244-2.694-.612-2.938-1.347-5.142-9.183-5.142-15.305c0-3.306.49-6.244,1.469-8.57-1.102-.123-2.204001,0-3.306.367-7.346001,2.449-5.754999,12.611-5.754999,12.611.122999.857-.489,1.714-1.347,1.837-.857001.122-1.714001-.49-1.836001-1.347-.735-4.408,0-13.468,7.836001-16.162c2.081999-.735,4.162999-.857,5.999999-.367c1.102-1.47,2.449-2.572,4.041-3.306c4.285-2.082,8.326-2.449,11.877-1.102c1.224-1.959,2.816-3.429,4.652-4.163c3.306-1.347,6.49-1.347,9.306,0c5.020001,2.326,7.469,7.837,8.204001,10.162C27.305,-1.714,26.448,3.061,26.448,3.306c-.122999.857-.98,1.469-1.837,1.224-.857-.122-1.469-.979-1.224001-1.836c0,0,.734001-4.163-.979999-8.938-.49-1.469-2.571-6.49-6.489-8.326-2.082-.979-4.286-.857-6.857.122-1.347.49-2.327,1.47-3.061,2.694c3.183,2.082,5.632,5.755,7.101,10.285c1.715,5.51.98,10.652-1.836,12.611-1.837,1.225-4.041.98-6.122-.734C1.837,7.714,0,-0.367,1.102,-7.224c.122-1.102.49-2.204.735-3.183-2.694-.857-5.755-.49-9.184,1.102-.979.49-1.714,1.102-2.448,1.836c3.673,2.572,6.367,8.081,7.224,14.938.734,6.244-.98,9.059999-2.572,10.162001C-5.877,18.489,-6.857,18.733,-7.959,18.733Zm-3.428-23.386c-.858,1.96-1.225,4.163-1.225,6-.367,6.98,2.204,13.223,3.306,13.836.49.245,1.592.612,2.449,0c1.225-.98,1.714-3.674,1.347-7.224-.612-4.531-2.449-10.163-5.877-12.612Zm16.162-4.04c-.245.735-.367,1.592-.49,2.204-.979,5.999.858,12.978,2.939,14.693.98.734,1.714.979,2.327.612c1.224-.857,2.204-4.163.612-9.061-1.102-3.795-3.061-6.734-5.388-8.448Z" fill="#131021"/></g></g><g><g transform="translate(365.032 576.713)"><path d="M6.246,3.857c-.612,2.938-1.96,5.02-4.164,5.878-.858.366-1.958.611-3.061.488-3.796-.366-6.001-4.651-5.02-11.876.978-7.223,5.265-8.693,8.326-8.081.244.122.489.122.734.245c3.55,1.714,3.919,9.428,3.185,13.346Z" fill="#b4b7c8"/></g><g transform="translate(366.992 576.835)"><path d="M4.287,3.735C3.674,6.673,2.328,8.754,0.124,9.612c-3.796-.49-5.144-5.266-4.286-11.511.612-4.406,1.837-6.855,5.264-7.713C4.654,-7.898,5.02,-0.185,4.287,3.735Z" fill="#6266f0"/></g><g transform="translate(378.807 577.633)"><path d="M15.49,0.245c.122.612-.123,1.224-.368,1.714-.611,1.347-1.836,2.326-1.836,2.326s-25.591-1.102-25.591-1.102-3.306-4.285.981-7.468c0,0,1.101,0,1.101,0s24.243.857,24.243.857c0,.122,1.225,1.469,1.47,3.673Z" fill="#b4b7c8"/></g><g transform="translate(378.563 577.751)"><path d="M15.366,1.958c-.611,1.347-1.836,2.328-1.836,2.328s-25.591-1.103-25.591-1.103-3.305-4.287.981-7.469c0,0,1.101,0,1.101,0-.123.734-.123,2.572,1.714,3.919C-6.551,0.98,8.142,1.713,15.366,1.958Z" fill="#6266f0"/></g></g><g><g transform="translate(273.445 600.771)"><path d="M54.119999,-10.529c-9.917999,4.04-19.468998-.98-19.468998-.98s-56.323002,27.425-56.323002,27.425c-.123999,1.959-1.347999,14.939-16.653,18.244-13.958,2.938999-19.591999-5.264-19.591999-5.264s2.938999-1.714001,2.938999-1.714001s14.817002-8.692999,14.817002-8.692999-4.899002-5.51-4.899002-5.51-18.120999,8.570999-18.120999,8.570999-.857002-1.958999-.857002-4.775999c0-1.224.122002-2.694.612003-4.162C-61.834999,7.958,-56.201,0.98,-46.284,-0.612c9.917999-1.592,14.694,2.326,14.694,2.326s60.118999-25.589999,60.118999-25.589999.123001-3.550002,2.939001-6.366002c2.693999-2.938999,7.589999-6.856998,14.325999-6.243999c3.795002.243999,6.61,1.469002,8.203003,2.446999c1.347.736,1.958999,1.347999,1.958999,1.347999s-14.939003,8.081001-14.939003,8.081001s5.388001,6,5.388001,6s13.836002-7.224998,13.836002-7.224998s1.103001.612999,1.959,2.571999c.121998.367.244999.735.367,1.102001C63.548,-19.223,64.038002,-14.57,54.119999,-10.529Z" fill="#d6d6ff"/></g><g transform="translate(276.262 607.752)"><path d="M50.813999,-15.917c-9.917999,4.04-18.979-2.448999-18.979-2.448999s-56.323,27.425999-56.323,27.425999C-24.611,11.02,-25.836,23.997999,-41.140999,27.304001c-13.958999,2.938-19.59-5.265001-19.59-5.265001s2.937-1.713999,2.937-1.713999c2.694001,1.835998,9.060997,4.896999,18.612,1.591999C-26.202999,17.386,-27.427,5.02,-27.427,5.02s59.629-27.304,59.629-27.304s8.570999,6.612,19.345001,1.346c6.368-3.059999,7.959-6.856001,8.080997-9.304001.123001.367001.246003.734002.368,1.102002.735001,2.937999.736,9.059999-9.181999,13.222999Z" fill="#9099ce"/></g><g transform="translate(222.203 616.323)"><path d="M12.918,1.592c0,0-1.959,1.592-1.959,1.592s-4.898-5.51-4.898-5.51-18.122,8.57-18.122,8.57-.857-1.959-.857-4.774c0,0,19.224-7.714,19.224-7.714s6.612,7.836,6.612,7.836Z" fill="#9099ce"/></g><g transform="translate(321.565 571.571)"><path d="M7.959,-3.366c0,0-14.938,8.081-14.938,8.081s-.98-1.96-.98-1.96s13.959-7.469,13.959-7.469c1.224.614,1.959,1.348,1.959,1.348Z" fill="#9099ce"/></g></g><g><g transform="translate(240.812 561.835)"><path d="M53.57,-12.979c5.142002,0,7.101001,5.389,2.448002,7.47C51.366001,-3.427,18.917999,14.815,4.47,14.815s-14.693-2.08-18.611-6.121c-3.918-3.918-21.672999-7.47-31.468001-7.836-9.795998-.367-15.060997-7.715-7.959-10.041c17.632-5.632,101.994999-3.796,107.138001-3.796Z" fill="#c5c5ff"/></g></g><g><g transform="translate(241.916 550.204)"><path d="M60.792999,-3.672c0,0-64.894999,26.936-64.894999,26.936s-13.957999-.735001-30.855001-9.305c-12.244999-6.245-25.835998-24.366-25.835998-24.366s7.101997-1.101,7.101997-1.101s71.874003-11.756,71.874003-11.756s2.816,3.917999,11.876998,10.776c1.224001.98,2.816,1.837,4.530001,2.694c10.162998,4.529,26.202999,6.122,26.202999,6.122Z" fill="#d6d6ff"/></g><g transform="translate(241.854 556.082)"><path d="M60.854,-9.551c0,0-19.101002,7.96-19.101002,7.96s-45.915998,18.977-45.915998,18.977-13.958-.736-30.856001-9.305C-40.160999,5.509,-45.549,0.734,-50.078999,-3.917c-6.245002-6.367-10.775001-12.367-10.775001-12.367s7.102001-1.102,7.102001-1.102c8.693001,2.939,22.407,6.244,39.793999,6.489c21.182.368,39.059-2.816,48.486999-4.897c10.285,4.652,26.325001,6.243,26.325001,6.243Z" fill="#a3acdd"/></g><g transform="translate(237.812 562.693)"><path d="M45.917,-8.326c0,0-45.916,18.978-45.916,18.978s-13.959-.734-30.856-9.305c-5.143001-2.571-10.531002-7.346-15.062-11.999c10.897999,2.449,25.958,4.897,44.202,5.141c18.611999.369,35.264999-1.101,47.632-2.815Z" fill="#6266f0"/></g><g transform="translate(257.466 530.431)"><path d="M3,0.307c-.613.856-2.449,1.469-4.163,1.224-1.714-.122-2.571-.981-1.959-1.837.612-.859,2.448-1.469,4.163-1.225c1.836.123,2.693.981,1.959,1.838Z" fill="#9099ce"/></g><g transform="translate(237.201 569.427)"><path d="M3.061,0.001c-.489.979-2.326,1.714-4.04,1.714-1.715,0-2.572-.735-2.082-1.714s2.327-1.715,4.041-1.715s2.571.859,2.081,1.715Z" fill="#d6d6ff"/></g><g transform="translate(291.321 548.002)"><path d="M3.061,0c-.49.979-2.326,1.715-4.041,1.715-1.714,0-2.571-.736-2.081-1.715.49-.98,2.326-1.714,4.041-1.714c1.714.123,2.571.856,2.081,1.714Z" fill="#d6d6ff"/></g><g transform="translate(188.652 541.818)"><path d="M3,0.429c-.612.856-2.571,1.346-4.163,1.102-1.714-.246-2.449-1.102-1.836-1.959.612-.857,2.57-1.347,4.162-1.102c1.714.245,2.45,1.102,1.837,1.959Z" fill="#d6d6ff"/></g></g></g><clipPath id="e0C4XLeKwTr74"><path d="M0,0h636v780h-636Z"/></clipPath></g><g id="e0C4XLeKwTr76" transform="matrix(.980506-.196491 0.196491 0.980506-45.330173 73.356621)"><g transform="translate(318.325 295.9)"><path d="M29.795,-52.959999c-.021.200001-.040001.360001-.061001.489998-.028999.200001-.049.310001-.049.310001s-6.439998,16.459999-11.92,33.299999C17.205,-17.16,16.665001,-15.45,16.135,-13.75c-.14.45-.28.89-.41,1.33-.55,1.76-1.07,3.51-1.55,5.22-.09.31-.18.61-.27.91-.54,1.91-1.04,3.77-1.49,5.55-.33,1.32-.69,2.73-1.06,4.23-.51,1.99-1.05,4.11-1.621,6.34-.139.56-.279,1.12-.429,1.69-.1.41-.21.83-.321,1.24-.21.84-.429,1.69-.649,2.54-.66,2.570001-1.34,5.21-2.03,7.87-.68,2.67-1.38,5.35-2.06,8-.23.879999-.46,1.76-.69,2.629999-1.12,4.360001-2.22,8.580002-3.21,12.39-.2.760002-.39,1.510002-.58,2.240001-.1.360001-.19.720002-.28,1.079998-.19.710003-.37,1.400002-.54,2.070004-.09.329998-.17.66-.26.989998-.17.650001-.33,1.27-.49,1.869999-.39,1.5-.74,2.850002-1.04,4.02-.06.23-.12.459999-.18.68-.11.41-.21.8-.3,1.150002-.13.479999-.24.899998-.33,1.259998-.02.100003-.05.180001-.07.270001-.03.119999-.06.229999-.09.34-.05.209999-.1.400001-.14.549999-.11.389999-.16.59-.16.59s-.01.010002-.01.010002s0,.009999,0,.009999c-.01,0-.01.010002-.02.010002-.11.099998-.43.369999-.95.739998c0,0,0,.010002,0,.010002-1.17.86-3.32,2.259994-6.01,3.189995-.07.030006-.13.050003-.2.069999c0,0,.49-4.449997.49-4.449997s.34-3.139999.34-3.139999c-1.96-.619999-4.41-1.23-7.47-1.470001-7.569999-.680001-11.489999,1.150001-12.050001,1.43C-28.055,54.139999,-20.094999,30.860001,-13.905,7.59c7.1-26.82,21.179-73.950001,21.179-73.950001c8.701-.979995,14.081.360001,17.391001,2.440003c5.289999,3.439998,5.33,8.91,5.129999,10.959999Z" fill="#9099ce"/></g><g transform="translate(322.323 297.675)"><path d="M20.547001,-65.565002C18.937,-60.255001,14.946,-47.424999,10.427,-32.255001c-.001.002003-.001.004002-.002.007-1.301-1.060997-2.903-1.994999-4.822-2.465-7.101-1.713997-11.142.122001-11.264.245002-.735.366997-1.102,1.347001-.735,2.080998.368.735001,1.347,1.102001,2.082.735001c0,0,3.306-1.468998,9.183,0c1.897.499,3.42,1.609001,4.568,2.749-2.911,9.809-5.98,20.388-8.75,30.458c0,0,0,.004,0,.004-1.322-1.09-2.91-2.029-4.754-2.481-7.101-1.714-11.142.122-11.264.245-.735.367-1.102001,1.347-.735,2.081.368.735,1.347,1.102,2.082.735c0,0,3.183-1.347,9.06,0c1.87.455,3.443,1.683,4.651,2.966-1.14,4.19-2.21,8.25-3.18,12.09-1.71,6.85-3.36,13.300001-4.89,19.25-.001.001999-.001.004001-.002.006-1.302-1.154999-2.926-2.145-4.907-2.602001-7.346-1.836998-11.509.122002-11.632001.245003-.733999.366997-1.101999,1.347-.733999,2.080997.367001.735001,1.346001,1.102001,2.080999.735001c0,0,3.428002-1.468998,9.550001,0c2.032.469002,3.595,1.758999,4.723,3.085998-1.789,6.890004-3.409,12.999001-4.769,18.129002c0,0,0,.009998,0,.009998-.27,1.040001-.54,2.030003-.78,2.980004c0,0-.49,4.45-.49,4.45.07-.020004.13-.04.2-.069999c2.69-.930001,4.84-2.330002,6.01-3.190003c0,0,0-.010002,0-.010002.52-.369999.84-.639999.95-.739998.01,0,.01-.010002.02-.010002c0,0,0-.009998,0-.009998s.01-.009998.01-.009998.01,0,.01,0s.05-.200001.15-.590001c.04-.150001.09-.34.14-.550003.03-.109996.06-.219997.09-.34.02-.089996.05-.169998.07-.269996.1-.360001.21-.780003.33-1.260003.1-.349998.2-.739997.3-1.149997.06-.220002.12-.450001.18-.680001.3-1.170002.66-2.52,1.04-4.02.16-.600002.32-1.220001.49-1.870003.09-.329998.17-.66.26-.989998.17-.670002.35-1.36.54-2.069999.09-.360001.18-.720002.28-1.080002.19-.73.38-1.48.58-2.239998.99-3.810001,2.09-8.030003,3.21-12.389999.23-.870001.46-1.750002.69-2.630002.68-2.649999,1.38-5.329999,2.06-8c.69-2.659999,1.37-5.300001,2.03-7.87.22-.85.439-1.7.649-2.54.111-.41.221-.83.321-1.24.15-.57.29-1.13.429-1.69.581-2.23,1.121-4.35,1.621-6.34.379-1.5.74-2.91,1.07-4.23.45-1.78.95-3.64,1.48-5.55.09-.3.18-.6.27-.91.49-1.71,1.01-3.45,1.55-5.22.13-.44.27-.88.41-1.33.53-1.7,1.07-3.409999,1.63-5.11c5.48-16.839998,11.92-33.300001,11.92-33.300001s.020001-.109997.049-.309998c.021-.130001.039999-.290001.061001-.490002.188999-2.029998.148998-7.489997-5.25-10.830001Z" fill="#6266f0"/></g><g transform="translate(309.62 369.94)"><path d="M-1.33,-14.13c0,0,0-.01,0-.01-.14-.05-.29-.1-.44-.15c0,0-.34,3.14-.34,3.14s-.49,4.45-.49,4.45-2,18.17-2,18.17c2.43-.17,4.91,1.91,4.91,1.91s.08.32.23.91c.09-.03.14-.05.14-.05s1.93-12.38,1.93-12.38s0-.01,0-.01s1.79-11.39,1.79-11.39s0-.01,0-.01.18-1.17.18-1.17s0-.01,0-.01.02-.13.02-.13c-.24-.24-1.85-1.85-5.93-3.27Z" fill="#131021"/></g><g transform="translate(316.541 370.341)"><path d="M-8.449,-3.55c0,0,8.204,9.917,8.204,9.917s3.062,5.02,7.224,2.326c2.816-1.959-.367-6.122-1.347-7.836-.245-.489-4.408-6.122-7.102-9.795-1.836-2.449-5.509-2.326-7.101.245-.98,1.102-1.224,2.816.122,5.143Z" fill="#3d4264"/></g><g transform="translate(299.705 383.47)"><path d="M16.715,22.25c0,2.450001-1.22,4.17-2.82,3.549999C12.305,25.190001,9.005,19.93,6.795,15.15c-1.48-3.21-3.02-8.98-3.87-12.41-.21.05-.42.09-.63.12.09,1.99.39,5.45,1.32,9.35c1.47,6.13,3.91,10.660001,3.91,13.349999s-1.22,4.41-2.81,3.800002c-1.59-.620001-4.9-6.25-7.1-11.390002C-4.025,14.16,-5.725,7.05,-6.485,3.63c-.14.01-.27.01-.4.01.29,1.8.78,4.86,1.31,8.45.86,5.76,2.82,10.289999,2.57,12.74-.24,2.450001-1.59,4.040001-3.18,3.299999-1.59-.729999-4.28-6.119999-6-11.139999-1.34-3.84-2.39-11.14-2.77-14.12-.19-.05-.29-.08-.29-.08s-1.47-3.19,0-13.96c1.35-10.780001,3.8-16.65,3.8-16.65s.02-.01.07-.040001c.56-.279998,4.48-2.109998,12.05-1.43c3.06.240002,5.51.85,7.47,1.470001c0,0-.34,3.14-.34,3.14s-.49,4.45-.49,4.45-2,18.17-2,18.17c2.43-.17,4.91,1.91,4.91,1.91s.08.32.23.91c.4,1.54,1.27,4.92,2.34,9c1.47,5.76,3.92,10.039999,3.92,12.49Z" fill="#3d4264"/></g></g><g clip-path="url(#e0C4XLeKwTr97)"><g transform="matrix(.927184-.374607 0.374607 0.927184 404.356 382.04)"><g transform="translate(100 100)"><g><g transform="matrix(0 1-1 0 0 0)"><path d="M0,-0.031c0,0,0-1.527,0-4" fill-opacity="0" stroke="#ffe816" stroke-width="3" stroke-linecap="round"/></g><g transform="matrix(.707107 0.707107-.707107 0.707107 0 0)"><path d="M0,-0.031c0,0,0-1.527,0-4" fill-opacity="0" stroke="#ffe816" stroke-width="3" stroke-linecap="round"/></g><g><path d="M0,-0.031c0,0,0-1.527,0-4" fill-opacity="0" stroke="#ffe816" stroke-width="3" stroke-linecap="round"/></g></g></g></g><clipPath id="e0C4XLeKwTr97"><path d="M0,0h200v200h-200Z"/></clipPath></g><g id="e0C4XLeKwTr99" transform="matrix(.99972 0.02366-.02366 0.99972 8.308696-10.031892)"><g transform="translate(519.815 471.95)"><path d="M22.764999,-12.72c-.060999.25-.109998.5-.17.75-.129999.53-.269998,1.07-.449999,1.641-.239999.809-.52,1.659-.84,2.549-.16.411-.319999.84-.489999,1.27-.170001.42-.340001.851-.520001,1.28-.18.42-.360001.861-.559999,1.3-.180001.41-.360001.82-.560002,1.24-.67,1.46-1.439998,3.02-2.289999,4.67-8.82,16.77-22.54,29.140001-31.72,29.380001-6.86.119999-9.06-2.450001-7.961-9.92.371001-2.450001,1.101-5.380002,2.091-9.059001c1.959999-6.851,4.65-13.471,7.39-19.271c2.07.95,3.84,1.691,5.28,2.24c2.8,1.08,4.35,1.491,4.35,1.491s4.04-.741,7.59-3.92c-2.63-1.361-5.8-3.131-9.56-5.401-1.17-.7-2.391-1.46-3.68-2.27c1.68-3.118999,3.26-5.799999,4.539-7.889999.761-1.220002,1.591-2.260001,2.471-3.149001c1.36-1.391,2.84-2.409999,4.38-3.111.04-.02.09-.040001.14-.059999c5.66-2.520001,12-.780001,15.790001,2.16.849998.609998,1.59,1.351,2.199998,2.08.040001.039999.08.09.120001.129999c2.629999,2.979999,3.59,6.551,2.459999,11.87Z" fill="#3d4264"/></g><g transform="translate(520.288 475.334)"><path d="M16.408001,-1.408C7.592,15.366,-6.122,27.733,-15.305,27.976999c-6.857001.123001-9.060999-2.448-7.959-9.917c1.591999,1.959,4.285,3.552001,8.57,2.694001c9.062-1.837,25.347-18.734,31.347-34.528c2.448-6.489,3.183-11.142,3.183-14.326c4.531001,5.142999,4.163001,11.999-3.427999,26.692Z" fill="#131021"/></g><g transform="translate(522.42 461.03)"><path d="M-0.79,10.69c-6.33,5.07-10.67,2.58-9.85-4.42c2.8,1.08,4.35,1.49,4.35,1.49s4.04-.74,7.59-3.92c-2.63-1.36-5.8-3.13-9.56-5.4c1.98-4.45,4.69-8.41,7.43-10.99c1.49-1.42,2.98-2.44,4.37-2.91.05-.02.1-.03.15-.05.52-.16,1.03-.25,1.52-.25c3.19,0,5.51,2.33,5.88,6.74.37,5.38-4.529,13.83-11.88,19.71Z" fill="#131021"/></g><g transform="translate(426.02 386.925)"><path d="M8.091,14.265c-8.261-11.62-13.2-21.3-16.181-28.52.031,0,.051,0,.08-.01c2.941,7.2,7.871,16.9,16.101,28.53Z" fill="#9099ce"/></g><g transform="translate(439.43 408.315)"><path d="M1.59,2.045c-1.109-1.39-2.17-2.75-3.18-4.09c1.021,1.34,2.08,2.7,3.18,4.09Z" fill="#9099ce"/></g><g transform="translate(468.68 406.895)"><path d="M55.040001,57.974998c-3.549999,3.180001-7.59,3.921002-7.59,3.921002s-1.549999-.41-4.348999-1.490002C41.66,59.855999,39.890999,59.116001,37.82,58.165001C27.629999,53.486,10.351,43.576,-9.25,24.066c-.399-.391001-.8-.790001-1.199-1.200001-1.2-1.209999-2.41-2.459999-3.62-3.740999-1.071-1.149-2.161-2.320999-3.25-3.52-.551001-.601-1.08-1.199-1.619999-1.789-.141001-.16-.281-.312-.411001-.461-.91-1.03-1.81-2.06-2.678999-3.069-.210001-.25-.431-.5-.641001-.75-.319-.371-.629999-.741-.93-1.1-.449999-.54-.9-1.07-1.33-1.601-.459999-.549-.9-1.09-1.34-1.631-.469-.58-.939999-1.159-1.39-1.739-1.1-1.389-2.159-2.75-3.18-4.09-1.01-1.339-1.979-2.661-2.919998-3.951-.269001-.38-.540001-.76-.809002-1.13-8.230999-11.63-13.161-21.328-16.100998-28.528001-.029003.009003-.050003.009003-.080002.009003-3.799999-9.059002-4.290001-14.199002-4.290001-14.199002s.25-3.310001,3.681-6.61c2.080002-2.091,5.509003-4.291001,10.769001-5.762001c2.941002-.858998,5.630001-1.099999,7.84-.979001.040001,0,.080002.001004.119999.011002C-24.27,-61.355,-21,-55.896,-21,-55.896s0,.012001.011.041c0,.010998.009.029999.019001.05s.021.041.031.070999c.24.720001,1.309,3.799,3.119999,8.290001.009001.02.019001.049.028999.069-1.809999,1.201-3.738998,2.52-5.778999,3.721001-.539999.319-1.070999.619999-1.591.919998-6.649999,3.75-12.459999,5.919002-17.229999,7.129001c1.659999,3.201001,3.509998,6.591,5.579998,10.101c3.031002-.27,6.670002-1.121999,10.180002-3.211c2.649999-1.610001,4.521-3.25,5.839998-4.741001c2.710001-3.049,3.101002-5.418999,3.101002-5.418999.119999-.859001.848999-1.469002,1.708999-1.349998.86.119998,1.47.861,1.35,1.720996c0,.180001-.54,3.790001-4.660001,8.000002-1.439999,1.47-3.309999,3-5.75,4.49-3.358999,2.049999-6.889999,3.049-9.988998,3.489c5.518999,9.029,12.399,18.74,20.798999,28.11c1.871-.74,4.01-1.939,6.331-3.809c2.529-2.061,4.179-4.031,5.25-5.732c1.929-3.08,1.979-5.259,1.979-5.41c0-.859.731-1.599,1.59-1.599.25,0,.49.06.7.18.11.051.21.119.311.209.219.181.389.421.489.701.04.111.07.23.08.35.011.05.011.109.011.159c0,.17-.061,3.592-3.131,7.991-1.23,1.76-2.94,3.669-5.319,5.6-2.121,1.76-4.151,2.98-6.021,3.83c5.261,5.65,11.09,11.140999,17.53,16.25.39.301001.77.609,1.151.899c1.599-.78,3.239-1.86,4.729-3.349c2.25-2.25,3.401-4.600001,3.981-6.579.790001-2.67.549-4.67.549-4.811-.12-.849.491001-1.59,1.34-1.71.861-.12,1.6.49,1.720001,1.35c0,.229.419998,3.44-1.060001,7.399999-.779999,2.120001-2.11,4.460001-4.33,6.681002C12.33,25.504999,10.91,26.555,9.5,27.375c7.511,5.830002,14.17,10.701,20.02,14.780998.939999-.771,1.9-1.730999,2.860001-2.919998c2.16-2.619999,2.721001-6.030998,2.789997-8.570999C35.23,28.566,34.959999,27.045,34.959999,26.996c-.129997-.861.360001-1.720001,1.221001-1.84.859001-.120001,1.709999.369999,1.839,1.229.07.199999.55,2.900999.149998,6.301001C37.84,35.384998,36.950001,38.535,34.830002,41.195c-.870003,1.09-1.75,2.02-2.620003,2.810001c3.5,2.390999,6.690003,4.480999,9.591,6.299999c1.289001.811001,2.510002,1.57,3.679001,2.271c3.760002,2.269001,6.93,4.039002,9.560001,5.398998Z" fill="#6266f0"/></g><g transform="translate(448.295 386)"><path d="M22.004999,10.11C21.795,9.99,21.555,9.93,21.305,9.93c-.86,0-1.59.741-1.59,1.6c0,.15-.049999,2.33-1.979999,5.410001-1.07,1.699998-2.720001,3.67-5.250001,5.730999-2.32,1.87-4.459,3.069-6.33,3.809-8.4-9.369999-15.28-19.08-20.799-28.11c3.099-.44,6.629-1.44,9.989-3.489c2.44-1.491,4.31-3.021,5.75-4.491c4.12-4.21,4.66-7.82,4.66-8.000001.12-.859998-.49-1.599998-1.35-1.719999s-1.589.49-1.71,1.35c0,0-.39,2.37-3.1,5.42-1.319,1.49-3.19,3.13-5.84,4.74-3.51,2.09-7.149,2.94-10.179999,3.21-2.070002-3.509-3.92-6.9-5.58-10.1c4.769998-1.21,10.579999-3.38,17.229999-7.13.52-.299999,1.051-.600001,1.591-.92c2.04-1.199999,3.969-2.520001,5.779-3.72c3.56,8.83,10.1,23.12,19.409999,36.59Z" fill="#9099ce"/></g><g transform="translate(492.79 431.121)"><path d="M33.991001,29.948999c-.86,1.591002-1.960003,2.820002-3.061001,3.801001-2.628999-1.361-5.800001-3.131001-9.559999-5.400999C20.200001,27.649,18.98,26.889,17.691,26.079C14.791,24.26,11.6,22.17,8.1,19.778999c.87-.789999,1.75-1.719999,2.62-2.809C12.841,14.309,13.73,11.159,14.06,8.46c.401-3.401-.08-6.101-.149-6.301-.13-.859-.981-1.35-1.84-1.23-.86.121-1.351.98-1.221,1.84c0,.05.271,1.571.21,3.67-.069,2.54-.63,5.95-2.79,8.571-.96,1.188999-1.92,2.149-2.859,2.919001C-0.44,13.849,-7.099,8.979,-14.61,3.149c1.411-.82,2.83-1.87,4.151-3.189c2.22-2.221,3.55-4.561,4.33-6.681c1.479-3.96,1.059-7.17,1.059-7.399-.12-.861-.859-1.471-1.719-1.351-.85.12-1.46.86-1.34,1.71c0,.141.24,2.141-.55,4.811-.58,1.979-1.73,4.33-3.98,6.58-1.491,1.489-3.13,2.569-4.73,3.349-.381-.29-.761-.599-1.15-.9-6.441-5.109-12.27-10.6-17.531-16.25c1.870999-.85,3.901001-2.069,6.021-3.829c2.379999-1.931,4.09-3.841,5.319-5.601c3.071-4.399,3.130999-7.820001,3.130999-7.99c0-.049999,0-.109001-.011-.159C-17.32,-27.66,-12.449,-21.780001,-7.03,-16.700001C9.401,-1.481,22.219999,7.54,29.080999,11.929c1.780001,1.14,3.149001,1.97,4.090002,2.52.939999.551,1.427998.811,1.427998.811s.852001,2.419001,1.102001,5.699999c0,0,0,.050001,0,.050001.369999,2.819,0,6-1.709999,8.938999Z" fill="#9099ce"/></g><g transform="translate(452.175 423.365)"><path d="M2.435,2.655c-1.08-1.149-2.17-2.32-3.261-3.52-.55-.6-1.08-1.2-1.609-1.79.54.59,1.069,1.19,1.62,1.79c1.09,1.2,2.18,2.371,3.25,3.52Z" fill="#6266f0"/></g><g transform="translate(453.33 374.03)"><path d="M17.281,22.290001c-.101-.09-.200001-.159-.311001-.210001C16.76,21.959999,16.52,21.9,16.27,21.9c-.859,0-1.59.741001-1.59,1.6c0,.15-.049,2.33-1.979,5.41C6.06,20.280001,0.531,11.01,-3.94,2.36c4.12-4.21,4.66-7.82,4.66-8c.121-.86-.49-1.6-1.349-1.72-.861-.12-1.591.49-1.711,1.35c0,0-.39,2.37-3.1,5.42-1.609-3.23-3.069-6.34-4.37-9.28.521-.299,1.051-.6,1.591-.92c2.04-1.2,3.97-2.52,5.779-3.72-.009-.02-.019-.05-.029-.07-1.811-4.49-2.881-7.569-3.121-8.290001-.01-.028999-.021-.049-.03-.068998-.01-.021-.019-.041001-.019-.051001-.011-.03-.011-.040001-.011-.040001s-3.269-5.459999-11.630001-5.868999c0,0,0-.011,0-.011C-8.839,-28.540001,-5.53,-23.030001,-5.53,-23.030001s.39,1.190001,1.16,3.270001c.07.19.151.389999.22.590999.061.159001.129.319001.19.489001.439,1.17.98,2.551,1.611,4.11c3.6,8.84,10.19,23.29,19.63,36.860001Z" fill="#c6cde8"/></g><g transform="translate(498.335 424.58)"><path d="M30.275999,27.559999C30.236,27.540001,30.195,27.52,30.155001,27.5C28.184,26.52,25.855,25.32,23.254,23.9c-1.299-.72-2.669001-1.48-4.098999-2.319001C15.884,19.690001,12.295,17.5,8.514,15c.401-3.4-.079-6.1-.148-6.3-.13-.86-.981-1.35-1.84-1.23-.86.12-1.351.98-1.221,1.84c0,.05.27,1.57.209,3.67-5.51-3.77-11.348-8.149-17.188-13.16c1.479-3.96,1.058-7.17,1.058-7.4-.12-.86-.859-1.47-1.719-1.35-.85.12-1.459.86-1.339,1.71c0,.14.24,2.14-.55,4.81-2.95-2.62-5.881-5.41-8.762-8.36-2.559-2.64-5-5.420001-7.289999-8.289999c3.070999-4.4,3.130999-7.82,3.130999-7.99c0-.050001.001001-.110001-.010001-.16-.008999-.120001-.040998-.240002-.080999-.35C-22.865999,-21.34,-17.895,-15.33,-12.335,-10.16C4.014,4.98,16.795,13.99,23.674,18.41c1.771,1.139999,3.152,1.969999,4.101999,2.530001c1,.579999,1.519001.859998,1.519001.859998s.861,2.450001.980999,5.76Z" fill="#c6cde8"/></g><g transform="translate(449.365 355.34)"><path d="M1.625,4.11c0,0-.01,0-.01.01c0,0-.091.06-.091.06-.009-.02-.019-.05-.029-.07-1.81-4.49-2.88-7.57-3.12-8.29.149.39.569,1.47,1.22,3.11.07.19.15.39.219.59.061.16.13.32.191.49.46,1.16,1.01,2.53,1.62,4.1Z" fill="#6266f0"/></g></g><g><g transform="translate(354.13 525.15)"><path d="M33.77,5.789c-.209999.681-.490001,1.29-.851001,1.83-.098999.141-.209999.29-.319001.42-.090999.101-.180999.21-.269996.3-.151001.16-.321003.31-.500002.43-.1.081-.209999.161-.330999.23-.08.05-.149001.091-.24.142-.109001.069-.229.119-.349001.169-.039999.019-.08.029-.129999.049-.130001.05-.271.1-.41.14-.710001.221-1.59.42-2.621.62-.259001.05-.519001.101-.799.141-.210001.039-.42.069-.640002.099-.209999.031-.430999.06-.659999.1-.449999.06-.92.12-1.41.19-2.111.27-4.549999.5-7.209999.69-.611.04-1.231001.091-1.861001.131-.399.019-.809.049-1.219.069-.3.021-.6.04-.901.05-1.489.091-3.019.16-4.59.221-.91.04-1.83.069-2.769.099-2.12.07-4.28.12-6.45.16-4.05.06-8.12.071-11.97.01-14.94-.25-21.670002-2.7-16.409999-8.33.489999-.609,1.229-1.22,2.08-1.84c5.76-4.62,16.879999-8.76,26.619999-11.24.04-.01.069-.01.1-.02c1.61-.41,3.19-.78,4.69-1.089c3.1-.641,5.899-1.071,8.14-1.241c1.939-.15,3.84-.32,5.639-.46c0,0,.180999.391.180999.391.989001,2.181,1.960001,4.159,2.869002,5.949C24.969,-7.181,27.049,-8.75,28.15,-9.859c.25-.241.439001-.472.599001-.662.070999-.1.139999-.19.201-.27.08-.12.139-.22.188999-.3.021-.03.040001-.07.061001-.09.029999-.05.049-.09.049-.11c0,0,.01-.01.01-.01s0-.01,0-.01-.01-.019-.019001-.048c-.021-.031-.039999-.092-.08-.171-.021-.04-.049999-.101-.08-.16-.039999-.081-.09-.181-.139999-.291c1.34.35,2.309.951,2.778999,1.89c1.101,2.21,2.321001,6.49,2.571001,10.53.110001,1.93-.020001,3.8-.520001,5.35Z" fill="#3d4264"/></g><g transform="translate(354.194 531.533)"><path d="M30.305,3.123c-6.367,1.959-26.694,2.815-43.101,2.57-14.937999-.245-21.671999-2.692-16.406999-8.325c4.285,1.225,13.101999,2.817,29.386999,2.326c19.591-.611,28.773001-2.938,33.915998-5.632.367001,4.164-.488998,8.082-3.794998,9.061Z" fill="#131021"/></g><g transform="translate(365.49 518.575)"><path d="M-11.48,4.325c-9.12-.55-6.279001-4.301-.13-6.681.03-.009.07-.019.101-.039c1.389-.53,2.939-.991,4.559-1.321c0,0,0-.01,0-.01.81-.16,1.63-.299,2.45-.399c3.86-.5,7.86-.88,11.451-1.05.989,2.181,1.96,4.159,2.869,5.949c3.79-1.38,5.87-2.949,6.971-4.058.25-.241.439-.471.598999-.661.07-.1.140002-.191.200001-.271.08-.12.14-.22.190001-.3c0,0,.010999,0,.010999,0c.66.231,1.109.522,1.338999.881C20.6,-1.435,3.09,5.176,-11.48,4.325Z" fill="#131021"/></g><g transform="translate(351.619 439.285)"><path d="M20.820999,74.114998c.989,2.181,1.960001,4.160004,2.869002,5.950004-.489001.239998-1.099001.369996-1.829001.611001-4.41,1.348999-9.311,1.098999-12.98.488998-3.06-.488998-5.14-1.099999-5.14-1.099999s-.561-1.120002-1.481-3.130004c-.07-.129998-.129-.258995-.189-.399994C-1.86,68.045998,-11.619,45.685001,-15.49,25.086c-4.889-26.08-8.200001-47.260999-1.710001-74.441C-15.73,-55.235001,-14.509,-60.005001,-13.28,-63.924999c4.281-14.079998,7.101-16.649998,7.101-16.649998s2.449-.740005,6-1.230003c.609-.089997,1.25-.169998,1.909-.220002-.619.060006-1.22.14-1.79.220002-.22.029998-.439.059997-.649.099998-1.92.290001-3.46.64-4.391.870003-.17.040001-.319.080002-.449.120003-.33.089996-.511.139999-.511.139999s-.47.419998-1.3,1.869995c-.12.220001-.259.470001-.41.740006-.08.139999-.149.279998-.229.429992-.13.280007-.29.580002-.451.920006-.12.220001-.229.459999-.33.709999-.07.14-.139.279999-.2.430001-.199.449996-.399.93-.63,1.449996-.139.330002-.279.669999-.429,1.040001-.14.360001-.29.730004-.441,1.129998-.3.790001-.62,1.650001-.939,2.590004-.16.440002-.311.900001-.47,1.370002-.08.239998-.16.479996-.24.719994-.33,1.010002-.681,2.090004-1.03,3.250004c1.62.389999,3.53.919998,5.69,1.599998c4.72,1.5,10.619,3.75,17.269,7.14-.99,2.540001-1.95,5.27-2.849,8.2-1.54-.659999-3.301-1.27-5.301-1.759998-5-1.25-9.18-1.479999-12.199-1.370003-3.191.100003-5.061.580002-5.181.640004-.859001.239997-1.349,1.100997-1.109001,1.959999.25.86,1.109001,1.350998,1.960001,1.100998c0,0,1.33-.329998,3.689-.470997c2.781-.16,7-.050003,12.111,1.209999c1.96.489998,3.66,1.100998,5.129,1.760998C3.631,-35.195,1.841,-24.945,1.55,-13.275c-1.4-.32-2.959-.56-4.669-.69-4.25-.319-7.781.04-10.451.56-3.559.701-5.569,1.69-5.710001,1.77-.858999.36-1.108999,1.34-.739999,2.08.37.731,1.350999,1.101,2.079999.731c0,0,1.620001-.761,4.540001-1.351c2.46-.5,5.83-.89,9.91-.609c1.871.16,3.54.46,4.991.849c0,6.45.45,13.321,1.5,20.58.58,3.96,1.219,7.760001,1.91,11.41-1.731.4-3.7.73-5.83.831-3.04.2-5.67-.010001-7.7-.34-2.861-.46-4.54-1.130999-4.54-1.130999-.861-.369001-1.72,0-2.081.859999-.37.861,0,1.710001.851,2.08.1.09,2.529,1.050001,6.51,1.550001c1.399.17,3,.289999,4.76.289999.73,0,1.589,0,2.32-.25c2.3-.14,4.42-.479,6.279-.91c2.051,10.300999,4.45,19.330002,6.95,27.170002-1.299.420997-2.849.789997-4.649,1.050999-3.49.488998-6.301.298999-8.36-.050999-2.56-.460003-3.941-1.18-4.01-1.18-.74-.370003-1.71-.120003-2.08.611-.49.739997-.12,1.718998.609,2.079998.101.109001,2.401,1.348999,6.511,1.798999.92.100003,1.939.161,3.04.161c1.47,0,3.059,0,4.649-.361c2.021-.268998,3.76-.678997,5.25-1.149998c2.441,7.290001,4.930999,13.460998,7.249999,18.559997c0,0,.181.39.181.39Z" fill="#9099ce"/></g><g transform="translate(383.205 514.165)"><path d="M0.064,-0.105c.021-.03.04-.07.061-.09-.01.03-.031.06-.05.09-.05.08-.111.18-.2.3.08-.12.139-.22.189-.3Z" fill="#9099ce"/></g><g transform="translate(383.395 513.845)"><path d="M0.005,-0.005c0,0,0,.01-.011.01c0,0,0-.01,0-.01s.011,0,.011,0Z" fill="#9099ce"/></g><g transform="translate(344.335 447.905)"><path d="M16.285,72.543999C13.224,72.055,11.145,71.445,11.145,71.445s-.56-1.14-1.5-3.170998c-.06-.120003-.12-.25-.19-.379005C5.525,59.395,-4.215,37.064999,-8.075,16.475c-4.9-26.08-8.21-47.271-1.72-74.451002c1.41-5.869999,2.72-10.66,3.92-14.568996c1.62.389,3.53.919998,5.69,1.598999-1.1,3.699997-2.16,7.790001-3.08,12.209999-3.19.099998-5.06.580002-5.18.639999-.86.241001-1.35,1.101002-1.11,1.959999.25.861,1.11,1.351002,1.96,1.101002c0,0,1.33-.330002,3.69-.471001-1.8,9.779999-2.9,21.071-2.38,33.481001-3.56.699999-5.57,1.689-5.71,1.768999-.86.361001-1.11,1.340001-.741,2.08.371.731001,1.351,1.101,2.081.731001c0,0,1.62-.760999,4.54-1.351.67,10.71,2.46,21.901,4.78,32.721-2.86-.46-4.54-1.131-4.54-1.131-.861-.369-1.72,0-2.08.86-.37.861,0,1.71.85,2.08.1.09,2.53,1.05,6.51,1.55c2.18,9.681,4.76,18.989998,7.3,27.3-2.56-.459999-3.941-1.180001-4.01-1.180001-.74-.369999-1.71-.119999-2.08.611-.49.740002-.12,1.719002.609,2.080002.101.108998,2.401,1.348999,6.511,1.799999c2.32,7.378998,4.57,13.848999,6.41,18.91.02.050003.039.091004.06.14c0,0,0,.009002,0,.009002.769,2.129998,1.47,4,2.08,5.589997Z" fill="#c6cde8"/></g><g transform="translate(357.31 438.21)"><path d="M26.08,75.629997c0,0,0,.010002,0,.010002s-.01.010003-.01.010003c0,.019996-.018999.059997-.05.11-.02.018997-.04.058998-.060001.089996C25.91,75.93,25.851,76.028999,25.77,76.150002c-.060001.080001-.128999.168998-.2.269996-.16.189003-.348999.419998-.598999.660004-1.101,1.11-3.181,2.68-6.971001,4.059997-.909-1.790001-1.879999-3.769996-2.869-5.949997c0,0-.181-.389999-.181-.389999-2.319-5.100006-4.809-11.271004-7.25-18.561005-1.49.471001-3.229.881001-5.25,1.151001C0.86,57.75,-0.73,57.75,-2.199,57.75c-1.101,0-2.12-.060001-3.04-.16-4.111-.450001-6.41-1.689998-6.511-1.799999-.73-.360001-1.1-1.34-.609-2.080002.37-.729999,1.339-.979999,2.08-.610001.069,0,1.45.719002,4.009,1.179001c2.06.351002,4.871.540001,8.361.051003c1.8-.261002,3.349-.630001,4.649-1.051003-2.5-7.839-4.899-16.868999-6.95-27.17-1.859.431002-3.98.771-6.279.911001-.731.25-1.59.25-2.321.25-1.759,0-3.36-.12-4.759-.29-3.980999-.5-6.411-1.46-6.51-1.55-.851-.370001-1.220999-1.220001-.851-2.08.361-.861,1.220001-1.229999,2.08-.861c0,0,1.68.671,4.54,1.131001c2.031.33,4.661.539999,7.701.339998c2.129-.101,4.099-.431,5.83-.83C-1.47,19.48,-2.109,15.68,-2.69,11.72c-1.049-7.26-1.5-14.13-1.5-20.58-1.45-.39-3.12-.69-4.99-.85-4.08-.28-7.449999.11-9.91.61-2.92.589-4.539999,1.35-4.539999,1.35-.729.37-1.710001,0-2.08-.73-.369001-.741-.119001-1.72.74-2.08.140999-.081,2.150999-1.07,5.709999-1.77c2.67-.52,6.2-.88,10.45-.561c1.71.13,3.27.371,4.67.691.29-11.670001,2.08-21.919999,4.5-30.64-1.469-.66-3.17-1.270001-5.13-1.759998-5.11-1.260003-9.33-1.371003-12.109999-1.210003-2.359001.140003-3.689001.470001-3.689001.470001-.851.25-1.709999-.240002-1.959999-1.099999-.241001-.86.25-1.720001,1.108999-1.960003.120001-.059997,1.99-.539997,5.181-.639999c3.019-.110001,7.199.120003,12.199,1.370003c2,.488998,3.761,1.099998,5.301,1.759998.899-2.93,1.859-5.66,2.849-8.200001C-2.54,-57.5,-8.44,-59.75,-13.159,-61.25c-2.16-.68-4.071-1.209999-5.691-1.599998.35-1.160004.701-2.239998,1.031-3.25.08-.239998.16-.480004.24-.720002.159-.470001.319-.93.470001-1.370002.318998-.939995.639-1.799996.938999-2.589997.15-.400001.301-.770004.44-1.130005.151-.369995.29-.709999.43-1.039993.231-.520004.431-1,.63-1.450005.061-.150001.13-.29.2-.43.101-.25.21-.489998.33-.709999.16-.339996.321-.639999.45-.919998.081-.150002.15-.290001.23-.43.15-.270005.29-.520005.41-.739998.83-1.450005,1.3-1.870003,1.3-1.870003s.181-.050003.511-.139999c.13-.029999.279-.07.449-.120003.931-.229996,2.471-.579994,4.391-.869995.209-.040001.429-.07.649-.100006.57-.079995,1.171-.159996,1.79-.219994.21-.020004.42-.040001.631-.060005c1.319-.099999,2.729-.129997,4.159-.059998.23.010002.46.029999.69.040001c3.47.260002,7.02,1.159996,9.871,3.239998c1.349.980003,2.45,1.959999,3.549,2.940003c5.64,5.269996,7.111001,10.29,7.111001,10.29s-.011.019997-.031001.049996c-.399999.570003-4.089,6.010002-7.79,15.93c0,.020001-.009.040001-.02.060002-1.109,3-2.23,6.409999-3.26,10.220001c0,0,0,.029999,0,.029999-.08.27-.149.54-.229.810001C8.53,-29.141001,6.78,-18.971001,6.431,-7.04c-.021.6-.031,1.21-.04,1.819c0,.25-.01.491-.01.741-.011.25-.011.509-.011.77c0,0,0,.13,0,.13-.01,1.43,0,2.859.051,4.29.01.569.029,1.13.059,1.69.1,2.419.27,4.839.5,7.25.151,1.6.33,3.19.54,4.77c0,0,0,.01,0,.01.151,1.19.321,2.369999.5,3.55.6,3.979999,1.35,7.878999,2.19,11.649999c1.77,8.030001,3.98,15.51,6.19,22.020003.12.378997.25.759998.390001,1.139999.25.75.511,1.488998.769998,2.209999.260001.73.510001,1.439999.770001,2.130001.25.688999.5,1.369999.75,2.029999.44,1.170002.879999,2.299999,1.301001,3.368999c0,0,0,.011002,0,.011002.368999.948997.739,1.849998,1.09,2.709999.178999.43.348999.849998.518999,1.260002.120001.290001.24.57.361.839996.339001.810006.66,1.57.969,2.270005.101.238998.2.469993.311001.698997.188999.441002.368999.850998.549999,1.240998c0,0,.009001.009002.009001.009002.150999.341004.289999.661003.42.959999.099998.221001.199998.420998.289999.621003.361.779998.651001,1.378997.85,1.799995c0,.010002.011.010002.011.010002.048999.109001.099001.209999.139.290001.031.059998.059999.120003.08.160004.04.078994.060001.139999.079999.169998.010001.028999.020001.049995.020001.049995Z" fill="#6266f0"/></g><g transform="translate(363.725 432.08)"><path d="M-0.025,0.909c.01-.609.02-1.219.04-1.818.01,0,.01.008.01.008" fill="#6266f0"/></g><g transform="translate(342.325 364.535)"><path d="M0.315,-0.725c-.199.45-.399.93-.63,1.45.221-.53.42-1.01.63-1.45Z" fill="#6266f0"/></g><g transform="translate(343.395 362.21)"><path d="M0.225,-0.46c-.13.28-.29.58-.45.92.15-.33.31-.64.45-.92Z" fill="#6266f0"/></g><g transform="translate(369.155 373.435)"><path d="M10.325,0.215c0,0-3.921,5.51-7.841,16.039999c0,0-.059-.029999-.059-.029999-.01-.01-.021-.02-.04-.03c3.7-9.92,7.389-15.36,7.79-15.93.019-.03.03-.05.03-.05s-1.471-5.02-7.11-10.29c-1.1-.98-2.201-1.96-3.55-2.94-2.851-2.08-6.401-2.98-9.87-3.239999c3.509.24,7.11,1.129999,10,3.239999c1.339.98,2.439,1.96,3.549,2.94c5.63,5.39,7.101,10.29,7.101,10.29Z" fill="#6266f0"/></g></g><g id="e0C4XLeKwTr149" transform="matrix(.998989-.044961 0.044962 0.998989-16.387489 18.001109)"><g transform="translate(396.931 344.505)"><path d="M66.915001,-29.141001c0,0-.979004,3.797001-3.551003,9.674002C61.16,-14.57,57.854,-8.08,52.956001,-1.346C49.160999,3.919,39.243,12.733,25.407,19.466999C14.877,24.610001,2.143,28.528,-11.938,28.773001c-26.326.366998-40.774002-5.999001-48.120998-11.264C-65.079002,13.836,-66.915001,10.775,-66.915001,10.775s39.305-11.754,39.305-11.754s94.525002-28.162001,94.525002-28.162001Z" fill="#d6d6ff"/></g><g transform="translate(378.258 358.587)"><path d="M44.080002,5.388C33.549999,10.53,20.815001,14.448,6.735,14.693c-26.326.367-40.774001-5.999-48.121002-11.264-5.019996-3.674-6.855999-6.735-6.855999-6.735s39.304001-11.754,39.304001-11.754c6.122,4.408,28.650999,1.47,55.098999,7.592C48.243,-6.979,47.264,1.225,44.080002,5.388Z" fill="#9099ce"/></g><g transform="translate(396.807 339.547)"><path d="M67.038002,-24.181999c0,0-.980003,3.795999-3.552002,9.672999-2.571999,2.938-5.509998,6.122-9.060001,9.55C40.467999,8.632,27.488001,16.59,27.488001,16.59s-15.060001,5.265-40.039001,6.612c-18.366999.979999-38.324999-.244999-47.630999-.857001-5.018997-3.672998-6.856003-6.733999-6.856003-6.733999s134.076004-39.792999,134.076004-39.792999Z" fill="#3d4264"/></g><g transform="translate(372.624 285.614)"><path d="M52.405998,64.892998c0,0-1.592998.367004-1.592998.367004-5.509999,1.468994-25.100001,6.122002-50.323,7.468994-10.408.489006-18.855999.367005-25.347-.244995-12.120001-.980003-17.754-2.939003-17.754-2.939003s-9.794998-131.864998-9.794998-131.864998s8.571998-1.592998,8.571998-1.592998s50.691-9.306004,50.691-9.306004s9.428,27.427002,22.529,65.750002C42.366001,30.732,52.405998,64.892998,52.405998,64.892998Z" fill="#9099ce"/></g><g transform="translate(421.66 267.861)"><path d="M42.181999,47.506001c0,0-4.285999,5.264999-12.979,14.202999c0,0-.123999.123001-.123999.123001C20.263,70.891998,3.367,82.646004,3.367,82.646004s-.122,0-.122,0c-2.939-10.407006-8.694-29.752003-15.306-49.587006C-21.856001,4.041,-42.181,-55.465,-42.181,-55.465s12.733999-17.631001,12.733999-17.631001s6.857001-9.550003,6.857001-9.550003s18.122,17.264,34.896,51.424004C29.08,2.939,42.181999,47.506001,42.181999,47.506001Z" fill="#c6cde8"/></g><g transform="translate(333.993 290.022)"><path d="M13.775,68.198997c-12.12-.978996-17.755-2.937995-17.755-2.937995s-9.795-131.867005-9.795-131.867005s8.571-1.591995,8.571-1.591995s18.979,136.396995,18.979,136.396995Z" fill="#6266f0"/></g><g transform="translate(428.029 257.392)"><path d="M35.814999,57.973999c0,0-4.284998,5.264999-12.978999,14.203003C17.570999,53.933998,10.102,30.548,0.184,5.938c-13.591-34.038-27.181999-56.200001-35.997999-68.565998c0,0,6.856998-9.549004,6.856998-9.549004s18.122001,17.263001,34.896001,51.423002C22.714001,13.407,35.814999,57.973999,35.814999,57.973999Z" fill="#d6d6ff"/></g><g transform="translate(392.028 292.717)"><path d="M11.447,36.853001c.245,1.714-.979,3.183998-2.693,3.183998s-3.184-1.347-3.429-3.183998c-.244-1.714001.98-3.183003,2.694-3.183003s3.183,1.469002,3.428,3.183003ZM-5.57,-36.854c0,1.714001-1.225,3.184002-2.939,3.184002s-3.061-1.470001-3.183-3.184002c0-1.714001,1.224-3.182999,2.938-3.182999c1.715,0,3.061,1.347,3.184,3.182999Z" fill="#6266f0"/></g><g transform="translate(394.113 302.205)"><path d="M-61.285,-37.648998c0,1.591999-1.101002,2.815998-2.57,2.815998s-2.692997-1.223999-2.692997-2.815998c0-1.591004,1.099999-2.817002,2.569996-2.817002s2.693001,1.225998,2.693001,2.817002Zm6,67.829998c-1.467998,0-2.57,1.224001-2.57,2.816002c0,1.590999,1.223999,2.815998,2.692002,2.815998c1.469997,0,2.572998-1.224999,2.572998-2.815998-.123001-1.592001-1.348-2.816002-2.695-2.816002Zm88.776001,3.672001c-1.714001,0-2.94,1.470001-2.817001,3.305999.122,1.836998,1.590999,3.306,3.306,3.306c1.714,0,2.938999-1.469002,2.817001-3.306-.123001-1.835998-1.591-3.428001-3.306-3.305999ZM63.978001,8.14c-1.347,0-2.327,1.224-2.205002,2.571c0,1.469,1.226002,2.572,2.450001,2.572c1.347,0,2.324997-1.225,2.203003-2.572c0-1.347-1.222001-2.449-2.448002-2.571Z" fill="#9099ce"/></g><g transform="translate(405.809 224.946)"><path d="M15.917,0.061c1.715,11.142-3.918,20.080001-12.733,20.080001-8.817,0-17.387-9.061001-19.102-20.080001-1.714-11.142,3.918-20.079999,12.734-20.079999C5.633,-20.141001,14.203,-11.081,15.917,0.061Z" fill="#6266f0"/></g><g transform="translate(410.213 222.496)"><path d="M10.653,-1.776c2.692,8.693,0,16.653-5.878,17.632-5.877.98-12.856-5.265-15.428-14.08-2.692-8.693,0-16.652,5.877-17.631c5.878-.979999,12.735,5.386,15.429,14.079Z" fill="#c6cde8"/></g><g transform="translate(411.193 222.497)"><path d="M4.408,-0.674c1.103,3.551,0,6.858-2.448,7.225-2.449.367-5.266-2.204-6.367-5.755-1.103-3.55,0-6.856,2.449-7.223c2.448-.49,5.264,2.08,6.366,5.753Z" fill="#131021"/></g><g transform="translate(365.034 295.778)"><path d="M32.692001,27.181999c0,0-.611.122002-.611.122002s-16.285001,1.837-16.285001,1.837-13.469,1.469-13.469,1.469-3.062.366998-3.062.366998-10.407,1.102-10.407,1.102-.734.123001-.734.123001-1.959.122001-1.959.122001-11.511001,1.347-11.511001,1.347-1.590999-12.734001-1.590999-12.734001-5.755001-46.649-5.755001-46.649s10.653001-1.714001,10.653001-1.714001s10.286-1.591999,10.286-1.591999.122,0,.122,0s10.163-1.592001,10.163-1.592001s19.590999-3.061,19.590999-3.061s3.182001,13.714,3.182001,13.714.367001,1.224001.367001,1.224001s3.060999,13.223,3.060999,13.223.613001,2.204.613001,2.204s3.305999,13.836,3.305999,13.836s3.918,16.161999,3.918,16.161999.122001.49.122001.49Z" fill="#131021"/></g><g transform="translate(371.585 301.963)"><path d="M26.141001,20.997999c0,0-.611.123001-.611.123001s-16.285001,1.836001-16.285001,1.836001-13.468,1.469999-13.468,1.469999-3.062.367001-3.062.367001-10.408001,1.101999-10.408001,1.101999-.733999.122-.733999.122-1.959.123001-1.959.123001-5.755001-45.915001-5.755001-45.915001s10.774001-1.591999,10.774001-1.591999s10.163-1.591002,10.163-1.591002.123-.122999.123-.122999s10.285-1.591,10.285-1.591s9.55-1.470001,9.55-1.470001.368,1.225001.368,1.225001s3.061001,13.223,3.061001,13.223.611999,2.204.611999,2.204s3.306,13.836,3.306,13.836s3.917999,16.160999,3.917999,16.160999.122002.49.122002.49Z" fill="#3d4264"/></g><g transform="translate(376.911 305.207)"><path d="M3.061,11.876c0,2.939,1.348,5.634,3.429,7.348001c0,0-11.51,1.223999-11.51,1.223999s-2.693.245001-2.693.245001-8.939.979-8.939.979-.244999-4.775002-.244999-4.775002-.367001-8.692999-.367001-8.692999s7.959-.246,7.959-.246c.244-1.224.489-2.447.979-3.672c0,0-7.592-5.02-7.592-5.02s8.205-12.366,8.205-12.366s8.326,6.244,8.326,6.244c.979-.612,1.959-1.102,2.938-1.591c0,0-2.449-10.653-2.449-10.653s6.367-1.591,6.367-1.591s3.796-.98,3.796-.98s2.693,11.265,2.693,11.265.491,1.959.491,1.959s2.815,11.875,2.815,11.875c-1.346-.857-3.06-1.224-4.774-1.224-5.021,0-9.429,4.408-9.429,9.672Z" fill="#eef1fb"/></g><g transform="translate(349.359 276.251)"><path d="M6.367,8.019c0,0-10.164,1.47-10.164,1.47s-2.569-17.387-2.569-17.387s10.284-1.591,10.284-1.591s2.449,17.508,2.449,17.508Z" fill="#eef1fb"/></g><g transform="translate(359.216 271.843)"><path d="M5.939,5.326c0,0-10.285,1.347-10.285,1.347s-1.593-11.754-1.593-11.754s10.163-1.592,10.163-1.592s1.715,11.999,1.715,11.999Z" fill="#d6d6ff"/></g><g transform="translate(345.626 322.286)"><path d="M7.531,5.693c0,0-13.47,1.47-13.47,1.47s-1.591-12.733-1.591-12.733s13.469-1.593,13.469-1.593s1.592,12.856,1.592,12.856Z" fill="#d6d6ff"/></g><g transform="translate(377.217 305.149)"><path d="M2.755,11.938c0,2.938,1.348,5.632,3.43,7.346c0,0-11.512,1.223999-11.512,1.223999s-2.691.245001-2.691.245001-8.94.98-8.94.98-.122999-2.327-.122999-2.327s14.570999-1.346001,14.570999-1.346001-2.327-7.835999,1.959-15.182999c4.285-7.346,11.265-7.346,11.265-7.346s-3.429-16.284-3.429-16.284s3.797-.98,3.797-.98s2.694,11.264,2.694,11.264.49,1.959.49,1.959s2.814999,11.877,2.814999,11.877C15.734,2.51,14.02,2.143,12.306,2.143c-5.144.122-9.551,4.53-9.551,9.795Z" fill="#d6d6ff"/></g><g transform="translate(359.585 204.254)"><path d="M39.487999,-19.039c0,0-19.591,27.181-19.591,27.181s-59.384998,10.897-59.384998,10.897s21.671999-23.141,21.671999-23.141s37.957001-9.917,37.957001-9.917s19.346998-5.02,19.346998-5.02Z" fill="#9099ce"/></g><g transform="translate(349.91 206.767)"><path d="M29.815001,-16.530001C27.856001,-12.734,25.163,-8.448,21.367001,-4.285C12.06,6,1.776,10.408,1.776,10.408s-31.591001,6.122001-31.591001,6.122001s21.552001-23.141001,21.552001-23.141001s38.078001-9.919001,38.078001-9.919001Z" fill="#6266f0"/></g></g><g id="e0C4XLeKwTr192" transform="matrix(.999431 0.033726-.033726 0.999431-.824763-10.1212)"><g transform="translate(323.154 152.4)"><path d="M55.098999,6.489c0,0-6.122997,12-17.509998,23.508999C32.078999,35.630001,25.344999,41.016998,17.386,44.936001c-10.897,5.387001-21.059,9.304001-29.019,11.875-10.04,3.306-16.53,4.653999-16.53,4.653999s-21.550001-36.121-24.733-63.547c-2.203998-19.467999,4.408001-33.181,16.040001-42.363999c2.938999-2.326,6.243999-4.407002,9.794998-6.121002c2.327002-1.101998,4.653-2.081997,7.102001-3.062001c21.55-7.835998,41.631001,6.735001,51.793,19.224003C42.119999,-21.794001,55.098999,6.489,55.098999,6.489Z" fill="#9099ce"/></g><g transform="translate(289.789 160.914)"><path d="M21.733,48.301998c-10.04,3.306004-16.53,4.653004-16.53,4.653004s-21.55-36.120003-24.733001-63.546002C-21.733999,-30.059,-15.122,-43.771999,-3.49,-52.955002c-2.082,10.652001-2.939,24.610003,1.469,39.303002C3.489,4.101,13.897,29.691,21.733,48.301998Z" fill="#6266f0"/></g><g transform="translate(313.737 161.092)"><path d="M8.372,20.784c9.031999-3.638,12.606001-15.892,7.983-27.371-4.623-11.478001-15.692-17.835001-24.725-14.197s-12.608001,15.893-7.985,27.372s15.694,17.834001,24.727,14.196Z" fill="#c6cde8"/></g><g transform="translate(311.768 161.583)"><path d="M7.319,18.172001C15.16,15.014,18.239,4.318,14.197,-5.718s-13.675-15.612-21.516-12.454001-10.92,13.854001-6.878,23.890001s13.675,15.612,21.516,12.454001Z" fill="#575c7a"/></g><g transform="translate(310.787 161.368)"><path d="M6.038,14.991c6.523-2.627,9.108-11.469,5.773-19.749s-11.325-12.862001-17.849-10.234c-6.523,2.627-9.108,11.47-5.773,19.75c3.334,8.279,11.326,12.860999,17.849,10.233Z" fill="#131021"/></g><g transform="translate(280.438 177.026)"><path d="M6.862,17.035c4.704-1.894,5.445-11.057,1.655-20.465-3.789-9.409-10.675-15.5-15.379-13.605999C-11.567,-15.141,-12.307,-5.979,-8.518,3.43c3.79,9.409,10.676,15.5,15.38,13.605Z" fill="#9099ce"/></g><g transform="translate(278.711 178.355)"><path d="M6.358,15.786c4.391-1.768,5.104-10.269,1.592-18.988s-9.918-14.354-14.308-12.585c-4.391,1.768-5.104,10.271-1.592,18.989c3.511,8.719,9.917,14.353,14.308,12.584Z" fill="#575c7a"/></g><g transform="translate(277.978 178.504)"><path d="M5.124,12.721C8.637,11.306,9.19,4.464,6.361,-2.561c-2.83-7.025-7.972-11.574-11.485-10.159-3.512,1.415-4.065,8.257-1.235,15.282C-3.53,9.587,1.611,14.135,5.124,12.721Z" fill="#131021"/></g><g transform="translate(324.561 84.386)"><path d="M21.489,-8.509c0,0-6.856,29.262-6.856,29.262s-10.531-1.1-10.531-1.1-17.02-1.716-17.02-1.716-8.571-.857-8.571-.857s19.101-35.384001,19.101-35.384001s1.959-.856998,4.776-1.469c2.938-.734998,6.612-.979999,9.795.244002c1.837.734998,3.428,2.081998,4.654,3.428999c3.059999,3.428,4.652,7.591,4.652,7.591Z" fill="#9099ce"/></g><g transform="translate(337.359 86.774)"><path d="M8.693,-10.897c0,0-6.855,29.262999-6.855,29.262999s-10.531-1.101999-10.531-1.101999s12.735-35.629999,12.735-35.629999C7.102,-15.06,8.693,-10.897,8.693,-10.897Z" fill="#6266f0"/></g><g transform="translate(315.01 83.467)"><path d="M11.938,-18.855c0,0-15.305,37.71-15.305,37.71s-8.571-.855999-8.571-.855999s19.101-35.385001,19.101-35.385001s1.959-.857,4.775-1.469Z" fill="#c6cde8"/></g><g transform="translate(330.867 77.282)"><path d="M11.264,7.04c-.733,0-1.346-.489-1.469-1.101-.122-.245-1.837-5.51-9.917-7.713-6.367-1.837-10.163.243-10.163.366-.735.49-1.714.123-2.204-.612-.49-.734-.122-1.713.612-2.203.245-.123,5.02-2.817,12.612-.612c9.796,2.815,11.876,9.55,11.999,9.917.244.857-.244,1.713-1.102,1.958c0,0-.368,0-.368,0Z" fill="#6266f0"/></g><g transform="translate(326.34 88.484)"><path d="M13.102,8.081c-.735,0-1.349-.49-1.594-1.224c0-.245-1.469-6.122-10.406-8.816-8.939-2.693-12.612.612-12.857.857-.612.612-1.592.612-2.205,0-.611-.612-.611-1.591,0-2.204.246-.244,5.02-4.775,15.918-1.592c10.776,3.307,12.49,10.775,12.49,11.143.122.857-.368,1.714-1.226,1.836c0,0-.12,0-.12,0Z" fill="#6266f0"/></g><g transform="translate(337.175 136.727)"><path d="M41.078999,22.160999c0,0-6.121998,11.999001-17.508999,23.508999C13.407,24.610001,-4.47,-10.162,-16.959,-22.406c-8.326-8.204001-17.019001-11.386999-24.119999-12.366999C-38.752998,-35.875,-36.426998,-36.854,-33.979,-37.834c21.55-7.835998,41.631,6.734,51.794001,19.223C28.1,-6.122,41.078999,22.160999,41.078999,22.160999Z" fill="#c6cde8"/></g><g transform="translate(339.073 182.336)"><path d="M48.365002,-14.386c0,0-11.756001,17.998-31.102002,31.834-2.571,1.836-5.386,3.673-8.203,5.264999C-1.225,28.712,-12.122,33.242001,-21.183001,36.548c-12.121,4.408001-20.936998,6.488999-20.936998,6.488999s-6.245003-18.732998-6.245003-18.732998s10.163002-4.040001,23.264002-10.162001c1.468001-.735,2.938999-1.469,4.530001-2.204C-5.389,4.592,0.367,-0.061,0.367,-0.061s-1.592-16.773999-1.592-16.773999s2.817-1.837002,6.735-4.530001c4.285-2.939001,9.794-6.857,13.713-10.163c7.468999-6.243999,10.163-11.508999,10.163-11.508999s6.489999,7.958,11.385999,15.671999c4.899002,7.591,7.593003,12.979,7.593003,12.979Z" fill="#9099ce"/></g><g transform="translate(365.949 169.601)"><path d="M21.489,-1.653c0,0-11.754,17.999001-31.1,31.834c0,0-11.877001-38.69-11.877001-38.69C-17.202,-11.448,-11.693,-15.366,-7.774,-18.672001C-0.305,-24.916,2.388,-30.181,2.388,-30.181s6.491,7.958,11.388,15.672c5.021001,7.469,7.713,12.856,7.713,12.856Z" fill="#c6cde8"/></g><g transform="translate(354.256 139.055)"><path d="M15.182,0c1.716001,10.652-3.796,19.223-12.121,19.223-8.327,0-16.529-8.571-18.243-19.223-1.714999-10.652,3.795-19.223,12.121-19.223c8.327,0,16.529,8.571,18.243,19.223Z" fill="#6266f0"/></g><g transform="translate(357.864 137.095)"><path d="M11.571,-1.96c2.816,9.428-.001,18.000001-6.367,19.102-6.367,1.101999-13.957-5.755-16.774-15.305-2.816-9.55,0-17.999001,6.368-19.101c6.367-.979,13.835,5.877,16.773,15.304Z" fill="#c6cde8"/></g><g transform="translate(359.705 135.076)"><path d="M5.204,-0.918c1.347,4.285,0,8.081-2.816,8.571-2.816.489-6.246-2.572-7.591-6.857-1.347-4.285,0-8.081,2.816-8.571c2.938-.367,6.366,2.694,7.591,6.857Z" fill="#575c7a"/></g><g transform="translate(304.421 210.923)"><path d="M13.591,7.958C1.47,12.366,-7.346,14.447,-7.346,14.447s-6.245-18.732-6.245-18.732s10.163-4.04,23.264-10.162c0,0,3.918,22.405,3.918,22.405Z" fill="#6266f0"/></g></g><g clip-path="url(#e0C4XLeKwTr243)"><clipPath id="e0C4XLeKwTr243"><path d="M0,0h200v200h-200Z"/></clipPath></g><g id="e0C4XLeKwTr245" transform="matrix(.999962-.008726 0.008726 0.999962 323.238 391.26)"><g transform="translate(.875-1)"><path d="M82.75,-167.625c0,0,9.75-12.25,23.375.375c8.5,7.5,17,18.125,28,5" fill-opacity="0" stroke="#3e4265" stroke-width="5" stroke-linecap="round"/></g></g><g clip-path="url(#e0C4XLeKwTr258)"><clipPath id="e0C4XLeKwTr258"><path d="M0,0h200v200h-200Z"/></clipPath></g><g id="e0C4XLeKwTr260" transform="translate(.000001 0)"><g transform="matrix(.998794-.049105 0.049105 0.998794 325.548 389.643)"><g transform="translate(.875-1)"><path d="M17,-106.875c0,0-13.625-8.75-21.375,7-7.875,9.375-20.5,5.375-23.25-2.375" fill-opacity="0" stroke="#3e4265" stroke-width="5" stroke-linecap="round"/></g></g><g transform="translate(.000001 0)"><g clip-path="url(#e0C4XLeKwTr275)"><g transform="matrix(.015707-.899863 0.899863 0.015707 194.228 369.464)"><g transform="translate(100 100)"><g><g transform="matrix(0 1-1 0 0 0)"><path d="M0,-0.031c0,0,0,0,0,0" fill-opacity="0" stroke="#ffe816" stroke-width="3" stroke-linecap="round"/></g><g transform="matrix(.707107 0.707107-.707107 0.707107 0 0)"><path d="M0,-0.031c0,0,0,0,0,0" fill-opacity="0" stroke="#ffe816" stroke-width="3" stroke-linecap="round"/></g><g><path d="M0,-0.031c0,0,0,0,0,0" fill-opacity="0" stroke="#ffe816" stroke-width="3" stroke-linecap="round"/></g></g></g></g><clipPath id="e0C4XLeKwTr275"><path d="M0,0h200v200h-200Z"/></clipPath></g><g transform="matrix(.997588-.069414 0.069414 0.997588 327.806 389.865)"><g transform="translate(.875-1)"><path d="M17.125,-106.25c0,0-15.25-1.625-16,15.375-2.875,11.5-16.5,13.5-21.75,8.875" fill-opacity="0" stroke="#ffe816" stroke-width="5" stroke-linecap="round"/></g></g></g></g></g><clipPath id="e0C4XLeKwTr280"><rect width="636" height="780" rx="0" ry="0"/></clipPath></g>
<script><![CDATA[
!function(t,n){"object"==typeof exports&&"undefined"!=typeof module?module.exports=n():"function"==typeof define&&define.amd?define(n):((t="undefined"!=typeof globalThis?globalThis:t||self).__SVGATOR_PLAYER__=t.__SVGATOR_PLAYER__||{},t.__SVGATOR_PLAYER__["5c7f360c"]=n())}(this,(function(){"use strict";function t(t,n){var e=Object.keys(t);if(Object.getOwnPropertySymbols){var r=Object.getOwnPropertySymbols(t);n&&(r=r.filter((function(n){return Object.getOwnPropertyDescriptor(t,n).enumerable}))),e.push.apply(e,r)}return e}function n(n){for(var e=1;e<arguments.length;e++){var r=null!=arguments[e]?arguments[e]:{};e%2?t(Object(r),!0).forEach((function(t){o(n,t,r[t])})):Object.getOwnPropertyDescriptors?Object.defineProperties(n,Object.getOwnPropertyDescriptors(r)):t(Object(r)).forEach((function(t){Object.defineProperty(n,t,Object.getOwnPropertyDescriptor(r,t))}))}return n}function e(t){return(e="function"==typeof Symbol&&"symbol"==typeof Symbol.iterator?function(t){return typeof t}:function(t){return t&&"function"==typeof Symbol&&t.constructor===Symbol&&t!==Symbol.prototype?"symbol":typeof t})(t)}function r(t,n){if(!(t instanceof n))throw new TypeError("Cannot call a class as a function")}function i(t,n){for(var e=0;e<n.length;e++){var r=n[e];r.enumerable=r.enumerable||!1,r.configurable=!0,"value"in r&&(r.writable=!0),Object.defineProperty(t,r.key,r)}}function u(t,n,e){return n&&i(t.prototype,n),e&&i(t,e),t}function o(t,n,e){return n in t?Object.defineProperty(t,n,{value:e,enumerable:!0,configurable:!0,writable:!0}):t[n]=e,t}function a(t){return(a=Object.setPrototypeOf?Object.getPrototypeOf:function(t){return t.__proto__||Object.getPrototypeOf(t)})(t)}function l(t,n){return(l=Object.setPrototypeOf||function(t,n){return t.__proto__=n,t})(t,n)}function s(){if("undefined"==typeof Reflect||!Reflect.construct)return!1;if(Reflect.construct.sham)return!1;if("function"==typeof Proxy)return!0;try{return Boolean.prototype.valueOf.call(Reflect.construct(Boolean,[],(function(){}))),!0}catch(t){return!1}}function f(t,n,e){return(f=s()?Reflect.construct:function(t,n,e){var r=[null];r.push.apply(r,n);var i=new(Function.bind.apply(t,r));return e&&l(i,e.prototype),i}).apply(null,arguments)}function c(t,n){if(n&&("object"==typeof n||"function"==typeof n))return n;if(void 0!==n)throw new TypeError("Derived constructors may only return object or undefined");return function(t){if(void 0===t)throw new ReferenceError("this hasnt been initialised - super() hasnt been called");return t}(t)}function h(t,n,e){return(h="undefined"!=typeof Reflect&&Reflect.get?Reflect.get:function(t,n,e){var r=function(t,n){for(;!Object.prototype.hasOwnProperty.call(t,n)&&null!==(t=a(t)););return t}(t,n);if(r){var i=Object.getOwnPropertyDescriptor(r,n);return i.get?i.get.call(e):i.value}})(t,n,e||t)}function v(t){return function(t){if(Array.isArray(t))return y(t)}(t)||function(t){if("undefined"!=typeof Symbol&&null!=t[Symbol.iterator]||null!=t["@@iterator"])return Array.from(t)}(t)||function(t,n){if(!t)return;if("string"==typeof t)return y(t,n);var e=Object.prototype.toString.call(t).slice(8,-1);"Object"===e&&t.constructor&&(e=t.constructor.name);if("Map"===e||"Set"===e)return Array.from(t);if("Arguments"===e||/^(?:Ui|I)nt(?:8|16|32)(?:Clamped)?Array$/.test(e))return y(t,n)}(t)||function(){throw new TypeError("Invalid attempt to spread non-iterable instance.\nIn order to be iterable, non-array objects must have a [Symbol.iterator]() method.")}()}function y(t,n){(null==n||n>t.length)&&(n=t.length);for(var e=0,r=new Array(n);e<n;e++)r[e]=t[e];return r}Number.isInteger||(Number.isInteger=function(t){return"number"==typeof t&&isFinite(t)&&Math.floor(t)===t}),Number.EPSILON||(Number.EPSILON=2220446049250313e-31);var g=d(Math.pow(10,-6));function d(t){var n=arguments.length>1&&void 0!==arguments[1]?arguments[1]:6;if(Number.isInteger(t))return t;var e=Math.pow(10,n);return Math.round((+t+Number.EPSILON)*e)/e}function p(t,n){var e=arguments.length>2&&void 0!==arguments[2]?arguments[2]:g;return Math.abs(t-n)<e}var m=Math.PI/180;function b(t){return t}function w(t,n,e){var r=1-e;return 3*e*r*(t*r+n*e)+e*e*e}function x(){var t=arguments.length>0&&void 0!==arguments[0]?arguments[0]:0,n=arguments.length>1&&void 0!==arguments[1]?arguments[1]:0,e=arguments.length>2&&void 0!==arguments[2]?arguments[2]:1,r=arguments.length>3&&void 0!==arguments[3]?arguments[3]:1;return t<0||t>1||e<0||e>1?null:p(t,n)&&p(e,r)?b:function(i){if(i<=0)return t>0?i*n/t:0===n&&e>0?i*r/e:0;if(i>=1)return e<1?1+(i-1)*(r-1)/(e-1):1===e&&t<1?1+(i-1)*(n-1)/(t-1):1;for(var u,o=0,a=1;o<a;){var l=w(t,e,u=(o+a)/2);if(p(i,l))break;l<i?o=u:a=u}return w(n,r,u)}}function A(){return 1}function k(t){return 1===t?1:0}function _(){var t=arguments.length>0&&void 0!==arguments[0]?arguments[0]:1,n=arguments.length>1&&void 0!==arguments[1]?arguments[1]:0;if(1===t){if(0===n)return k;if(1===n)return A}var e=1/t;return function(t){return t>=1?1:(t+=n*e)-t%e}}var S=Math.sin,O=Math.cos,j=Math.acos,M=Math.asin,P=Math.tan,E=Math.atan2,I=Math.PI/180,R=180/Math.PI,F=Math.sqrt,N=function(){function t(){var n=arguments.length>0&&void 0!==arguments[0]?arguments[0]:1,e=arguments.length>1&&void 0!==arguments[1]?arguments[1]:0,i=arguments.length>2&&void 0!==arguments[2]?arguments[2]:0,u=arguments.length>3&&void 0!==arguments[3]?arguments[3]:1,o=arguments.length>4&&void 0!==arguments[4]?arguments[4]:0,a=arguments.length>5&&void 0!==arguments[5]?arguments[5]:0;r(this,t),this.m=[n,e,i,u,o,a],this.i=null,this.w=null,this.s=null}return u(t,[{key:"determinant",get:function(){var t=this.m;return t[0]*t[3]-t[1]*t[2]}},{key:"isIdentity",get:function(){if(null===this.i){var t=this.m;this.i=1===t[0]&&0===t[1]&&0===t[2]&&1===t[3]&&0===t[4]&&0===t[5]}return this.i}},{key:"point",value:function(t,n){var e=this.m;return{x:e[0]*t+e[2]*n+e[4],y:e[1]*t+e[3]*n+e[5]}}},{key:"translateSelf",value:function(){var t=arguments.length>0&&void 0!==arguments[0]?arguments[0]:0,n=arguments.length>1&&void 0!==arguments[1]?arguments[1]:0;if(!t&&!n)return this;var e=this.m;return e[4]+=e[0]*t+e[2]*n,e[5]+=e[1]*t+e[3]*n,this.w=this.s=this.i=null,this}},{key:"rotateSelf",value:function(){var t=arguments.length>0&&void 0!==arguments[0]?arguments[0]:0;if(t%=360){var n=S(t*=I),e=O(t),r=this.m,i=r[0],u=r[1];r[0]=i*e+r[2]*n,r[1]=u*e+r[3]*n,r[2]=r[2]*e-i*n,r[3]=r[3]*e-u*n,this.w=this.s=this.i=null}return this}},{key:"scaleSelf",value:function(){var t=arguments.length>0&&void 0!==arguments[0]?arguments[0]:1,n=arguments.length>1&&void 0!==arguments[1]?arguments[1]:1;if(1!==t||1!==n){var e=this.m;e[0]*=t,e[1]*=t,e[2]*=n,e[3]*=n,this.w=this.s=this.i=null}return this}},{key:"skewSelf",value:function(t,n){if(n%=360,(t%=360)||n){var e=this.m,r=e[0],i=e[1],u=e[2],o=e[3];t&&(t=P(t*I),e[2]+=r*t,e[3]+=i*t),n&&(n=P(n*I),e[0]+=u*n,e[1]+=o*n),this.w=this.s=this.i=null}return this}},{key:"resetSelf",value:function(){var t=arguments.length>0&&void 0!==arguments[0]?arguments[0]:1,n=arguments.length>1&&void 0!==arguments[1]?arguments[1]:0,e=arguments.length>2&&void 0!==arguments[2]?arguments[2]:0,r=arguments.length>3&&void 0!==arguments[3]?arguments[3]:1,i=arguments.length>4&&void 0!==arguments[4]?arguments[4]:0,u=arguments.length>5&&void 0!==arguments[5]?arguments[5]:0,o=this.m;return o[0]=t,o[1]=n,o[2]=e,o[3]=r,o[4]=i,o[5]=u,this.w=this.s=this.i=null,this}},{key:"recomposeSelf",value:function(){var t=arguments.length>0&&void 0!==arguments[0]?arguments[0]:null,n=arguments.length>1&&void 0!==arguments[1]?arguments[1]:null,e=arguments.length>2&&void 0!==arguments[2]?arguments[2]:null,r=arguments.length>3&&void 0!==arguments[3]?arguments[3]:null,i=arguments.length>4&&void 0!==arguments[4]?arguments[4]:null;return this.isIdentity||this.resetSelf(),t&&(t.x||t.y)&&this.translateSelf(t.x,t.y),n&&this.rotateSelf(n),e&&(e.x&&this.skewSelf(e.x,0),e.y&&this.skewSelf(0,e.y)),!r||1===r.x&&1===r.y||this.scaleSelf(r.x,r.y),i&&(i.x||i.y)&&this.translateSelf(i.x,i.y),this}},{key:"decompose",value:function(){var t=arguments.length>0&&void 0!==arguments[0]?arguments[0]:0,n=arguments.length>1&&void 0!==arguments[1]?arguments[1]:0,e=this.m,r=e[0]*e[0]+e[1]*e[1],i=[[e[0],e[1]],[e[2],e[3]]],u=F(r);if(0===u)return{origin:{x:d(e[4]),y:d(e[5])},translate:{x:d(t),y:d(n)},scale:{x:0,y:0},skew:{x:0,y:0},rotate:0};i[0][0]/=u,i[0][1]/=u;var o=e[0]*e[3]-e[1]*e[2]<0;o&&(u=-u);var a=i[0][0]*i[1][0]+i[0][1]*i[1][1];i[1][0]-=i[0][0]*a,i[1][1]-=i[0][1]*a;var l=F(i[1][0]*i[1][0]+i[1][1]*i[1][1]);if(0===l)return{origin:{x:d(e[4]),y:d(e[5])},translate:{x:d(t),y:d(n)},scale:{x:d(u),y:0},skew:{x:0,y:0},rotate:0};i[1][0]/=l,i[1][1]/=l,a/=l;var s=0;return i[1][1]<0?(s=j(i[1][1])*R,i[0][1]<0&&(s=360-s)):s=M(i[0][1])*R,o&&(s=-s),a=E(a,F(i[0][0]*i[0][0]+i[0][1]*i[0][1]))*R,o&&(a=-a),{origin:{x:d(e[4]),y:d(e[5])},translate:{x:d(t),y:d(n)},scale:{x:d(u),y:d(l)},skew:{x:d(a),y:0},rotate:d(s)}}},{key:"clone",value:function(){var t=this.m;return new this.constructor(t[0],t[1],t[2],t[3],t[4],t[5])}},{key:"toString",value:function(){var t=arguments.length>0&&void 0!==arguments[0]?arguments[0]:" ";if(null===this.s){var n=this.m.map((function(t){return d(t)}));1===n[0]&&0===n[1]&&0===n[2]&&1===n[3]?this.s="translate("+n[4]+t+n[5]+")":this.s="matrix("+n.join(t)+")"}return this.s}}],[{key:"create",value:function(t){return t?Array.isArray(t)?f(this,v(t)):t instanceof this?t.clone():(new this).recomposeSelf(t.origin,t.rotate,t.skew,t.scale,t.translate):new this}}]),t}();function T(t,n,e){return t>=.5?e:n}function q(t,n,e){return 0===t||n===e?n:t*(e-n)+n}function B(t,n,e){var r=q(t,n,e);return r<=0?0:r}function L(t,n,e){var r=q(t,n,e);return r<=0?0:r>=1?1:r}function C(t,n,e){return 0===t?n:1===t?e:{x:q(t,n.x,e.x),y:q(t,n.y,e.y)}}function D(t,n,e){var r=function(t,n,e){return Math.round(q(t,n,e))}(t,n,e);return r<=0?0:r>=255?255:r}function z(t,n,e){return 0===t?n:1===t?e:{r:D(t,n.r,e.r),g:D(t,n.g,e.g),b:D(t,n.b,e.b),a:q(t,null==n.a?1:n.a,null==e.a?1:e.a)}}function V(t,n){for(var e=[],r=0;r<t;r++)e.push(n);return e}function G(t,n){if(--n<=0)return t;var e=(t=Object.assign([],t)).length;do{for(var r=0;r<e;r++)t.push(t[r])}while(--n>0);return t}var Y,$=function(){function t(n){r(this,t),this.list=n,this.length=n.length}return u(t,[{key:"setAttribute",value:function(t,n){for(var e=this.list,r=0;r<this.length;r++)e[r].setAttribute(t,n)}},{key:"removeAttribute",value:function(t){for(var n=this.list,e=0;e<this.length;e++)n[e].removeAttribute(t)}},{key:"style",value:function(t,n){for(var e=this.list,r=0;r<this.length;r++)e[r].style[t]=n}}]),t}(),U=/-./g,Q=function(t,n){return n.toUpperCase()};function H(t){return"function"==typeof t?t:T}function J(t){return t?"function"==typeof t?t:Array.isArray(t)?function(t){var n=arguments.length>1&&void 0!==arguments[1]?arguments[1]:b;if(!Array.isArray(t))return n;switch(t.length){case 1:return _(t[0])||n;case 2:return _(t[0],t[1])||n;case 4:return x(t[0],t[1],t[2],t[3])||n}return n}(t,null):function(t,n){var e=arguments.length>2&&void 0!==arguments[2]?arguments[2]:b;switch(t){case"linear":return b;case"steps":return _(n.steps||1,n.jump||0)||e;case"bezier":case"cubic-bezier":return x(n.x1||0,n.y1||0,n.x2||0,n.y2||0)||e}return e}(t.type,t.value,null):null}function Z(t,n,e){var r=arguments.length>3&&void 0!==arguments[3]&&arguments[3],i=n.length-1;if(t<=n[0].t)return r?[0,0,n[0].v]:n[0].v;if(t>=n[i].t)return r?[i,1,n[i].v]:n[i].v;var u,o=n[0],a=null;for(u=1;u<=i;u++){if(!(t>n[u].t)){a=n[u];break}o=n[u]}return null==a?r?[i,1,n[i].v]:n[i].v:o.t===a.t?r?[u,1,a.v]:a.v:(t=(t-o.t)/(a.t-o.t),o.e&&(t=o.e(t)),r?[u,t,e(t,o.v,a.v)]:e(t,o.v,a.v))}function K(t,n){var e=arguments.length>2&&void 0!==arguments[2]?arguments[2]:null;return t&&t.length?"function"!=typeof n?null:("function"!=typeof e&&(e=null),function(r){var i=Z(r,t,n);return null!=i&&e&&(i=e(i)),i}):null}function W(t,n){return t.t-n.t}function X(t,n,r,i,u){var o,a="@"===r[0],l="#"===r[0],s=Y[r],f=T;switch(a?(o=r.substr(1),r=o.replace(U,Q)):l&&(r=r.substr(1)),e(s)){case"function":if(f=s(i,u,Z,J,r,a,n,t),l)return f;break;case"string":f=K(i,H(s));break;case"object":if((f=K(i,H(s.i),s.f))&&"function"==typeof s.u)return s.u(n,f,r,a,t)}return f?function(t,n,e){if(arguments.length>3&&void 0!==arguments[3]&&arguments[3])return t instanceof $?function(r){return t.style(n,e(r))}:function(r){return t.style[n]=e(r)};if(Array.isArray(n)){var r=n.length;return function(i){var u=e(i);if(null==u)for(var o=0;o<r;o++)t[o].removeAttribute(n);else for(var a=0;a<r;a++)t[a].setAttribute(n,u)}}return function(r){var i=e(r);null==i?t.removeAttribute(n):t.setAttribute(n,i)}}(n,r,f,a):null}function tt(t,n,r,i){if(!i||"object"!==e(i))return null;var u=null,o=null;return Array.isArray(i)?o=function(t){if(!t||!t.length)return null;for(var n=0;n<t.length;n++)t[n].e&&(t[n].e=J(t[n].e));return t.sort(W)}(i):(o=i.keys,u=i.data||null),o?X(t,n,r,o,u):null}function nt(t,n,e){if(!e)return null;var r=[];for(var i in e)if(e.hasOwnProperty(i)){var u=tt(t,n,i,e[i]);u&&r.push(u)}return r.length?r:null}function et(t,n){if(!n.settings.duration||n.settings.duration<0)return null;var e,r,i,u,o,a=function(t,n){if(!n)return null;var e=[];if(Array.isArray(n))for(var r=n.length,i=0;i<r;i++){var u=n[i];if(2===u.length){var o=null;if("string"==typeof u[0])o=t.getElementById(u[0]);else if(Array.isArray(u[0])){o=[];for(var a=0;a<u[0].length;a++)if("string"==typeof u[0][a]){var l=t.getElementById(u[0][a]);l&&o.push(l)}o=o.length?1===o.length?o[0]:new $(o):null}if(o){var s=nt(t,o,u[1]);s&&(e=e.concat(s))}}}else for(var f in n)if(n.hasOwnProperty(f)){var c=t.getElementById(f);if(c){var h=nt(t,c,n[f]);h&&(e=e.concat(h))}}return e.length?e:null}(t,n.elements);return a?(e=a,r=n.settings,i=r.duration,u=e.length,o=null,function(t,n){var a=r.iterations||1/0,l=(r.alternate&&a%2==0)^r.direction>0?i:0,s=t%i,f=1+(t-s)/i;n*=r.direction,r.alternate&&f%2==0&&(n=-n);var c=!1;if(f>a)s=l,c=!0,-1===r.fill&&(s=r.direction>0?0:i);else if(n<0&&(s=i-s),s===o)return!1;o=s;for(var h=0;h<u;h++)e[h](s);return c}):null}function rt(t,n){if(Y=n,!t||!t.root||!Array.isArray(t.animations))return null;var e=function(t){for(var n=document.getElementsByTagName("svg"),e=0;e<n.length;e++)if(n[e].id===t.root&&!n[e].svgatorAnimation)return n[e].svgatorAnimation=!0,n[e];return null}(t);if(!e)return null;var r=t.animations.map((function(t){return et(e,t)})).filter((function(t){return!!t}));return r.length?{svg:e,animations:r,animationSettings:t.animationSettings,options:t.options||void 0}:null}function it(t){return+("0x"+(t.replace(/[^0-9a-fA-F]+/g,"")||27))}function ut(t,n,e){return!t||!e||n>t.length?t:t.substring(0,n)+ut(t.substring(n+1),e,e)}function ot(t){var n=arguments.length>1&&void 0!==arguments[1]?arguments[1]:27;return!t||t%n?t%n:ot(t/n,n)}function at(t,n,e){if(t&&t.length){var r=it(e),i=it(n),u=ot(r)+5,o=ut(t,ot(r,5),u);return o=o.replace(/\x7c$/g,"==").replace(/\x2f$/g,"="),o=function(t,n,e){var r=+("0x"+t.substring(0,4));t=t.substring(4);for(var i=n%r+e%27,u=[],o=0;o<t.length;o+=2)if("|"!==t[o]){var a=+("0x"+t[o]+t[o+1])-i;u.push(a)}else{var l=+("0x"+t.substring(o+1,o+1+4))-i;o+=3,u.push(l)}return String.fromCharCode.apply(String,u)}(o=(o=atob(o)).replace(/[\x41-\x5A]/g,""),i,r),o=JSON.parse(o)}}var lt=[{key:"alternate",def:!1},{key:"fill",def:1},{key:"iterations",def:0},{key:"direction",def:1},{key:"speed",def:1},{key:"fps",def:100}],st=function(){function t(n,e){var i=this,u=arguments.length>2&&void 0!==arguments[2]?arguments[2]:null;r(this,t),this._id=0,this._running=!1,this._rollingBack=!1,this._animations=n,this._settings=e,(!u||u<"2022-05-02")&&delete this._settings.speed,lt.forEach((function(t){i._settings[t.key]=i._settings[t.key]||t.def})),this.duration=e.duration,this.offset=e.offset||0,this.rollbackStartOffset=0}return u(t,[{key:"alternate",get:function(){return this._settings.alternate}},{key:"fill",get:function(){return this._settings.fill}},{key:"iterations",get:function(){return this._settings.iterations}},{key:"direction",get:function(){return this._settings.direction}},{key:"speed",get:function(){return this._settings.speed}},{key:"fps",get:function(){return this._settings.fps}},{key:"maxFiniteDuration",get:function(){return this.iterations>0?this.iterations*this.duration:this.duration}},{key:"_apply",value:function(t){for(var n=arguments.length>1&&void 0!==arguments[1]?arguments[1]:{},e=this._animations,r=e.length,i=0,u=0;u<r;u++)n[u]?i++:(n[u]=e[u](t,1),n[u]&&i++);return i}},{key:"_rollback",value:function(t){var n=this,e=1/0,r=null;this.rollbackStartOffset=t,this._rollingBack=!0,this._running=!0;this._id=window.requestAnimationFrame((function i(u){if(n._rollingBack){null==r&&(r=u);var o=Math.round(t-(u-r)*n.speed);if(o>n.duration&&e!==1/0){var a=!!n.alternate&&o/n.duration%2>1,l=o%n.duration;o=(l+=a?n.duration:0)||n.duration}var s=(n.fps?1e3/n.fps:0)*n.speed,f=Math.max(0,o);f<=e-s&&(n.offset=f,e=f,n._apply(f));var c=n.iterations>0&&-1===n.fill&&o>=n.maxFiniteDuration;(o<=0||n.offset<o||c)&&n.stop(),n._id=window.requestAnimationFrame(i)}}))}},{key:"_start",value:function(){var t=this,n=arguments.length>0&&void 0!==arguments[0]?arguments[0]:0,e=-1/0,r=null,i={};this._running=!0;var u=function u(o){null==r&&(r=o);var a=Math.round((o-r)*t.speed+n),l=(t.fps?1e3/t.fps:0)*t.speed;if(a>=e+l&&!t._rollingBack&&(t.offset=a,e=a,t._apply(a,i)===t._animations.length))return void t.pause(!0);t._id=window.requestAnimationFrame(u)};this._id=window.requestAnimationFrame(u)}},{key:"_pause",value:function(){this._id&&window.cancelAnimationFrame(this._id),this._running=!1}},{key:"play",value:function(){if(!this._running)return this._rollingBack?this._rollback(this.offset):this._start(this.offset)}},{key:"stop",value:function(){this._pause(),this.offset=0,this.rollbackStartOffset=0,this._rollingBack=!1,this._apply(0)}},{key:"reachedToEnd",value:function(){return this.iterations>0&&this.offset>=this.iterations*this.duration}},{key:"restart",value:function(){var t=arguments.length>0&&void 0!==arguments[0]&&arguments[0];this.stop(t),this.play(t)}},{key:"pause",value:function(){this._pause()}},{key:"reverse",value:function(){this.direction=-this.direction}}],[{key:"build",value:function(t,n){delete t.animationSettings,t.options=at(t.options,t.root,"5c7f360c"),t.animations.map((function(n){n.settings=at(n.s,t.root,"5c7f360c"),delete n.s,t.animationSettings||(t.animationSettings=n.settings)}));var e=t.version;if(!(t=rt(t,n)))return null;var r=t.options||{},i=new this(t.animations,t.animationSettings,e);return{el:t.svg,options:r,player:i}}},{key:"push",value:function(t){return this.build(t)}},{key:"init",value:function(){var t=this,n=window.__SVGATOR_PLAYER__&&window.__SVGATOR_PLAYER__["5c7f360c"];Array.isArray(n)&&n.splice(0).forEach((function(n){return t.build(n)}))}}]),t}();function ft(t){return d(t)+""}function ct(t){var n=arguments.length>1&&void 0!==arguments[1]?arguments[1]:" ";return t&&t.length?t.map(ft).join(n):""}function ht(t){if(!t)return"transparent";if(null==t.a||t.a>=1){var n=function(t){return 1===(t=parseInt(t).toString(16)).length?"0"+t:t},e=function(t){return t.charAt(0)===t.charAt(1)},r=n(t.r),i=n(t.g),u=n(t.b);return e(r)&&e(i)&&e(u)&&(r=r.charAt(0),i=i.charAt(0),u=u.charAt(0)),"#"+r+i+u}return"rgba("+t.r+","+t.g+","+t.b+","+t.a+")"}function vt(t){return t?"url(#"+t+")":"none"}!function(){for(var t=0,n=["ms","moz","webkit","o"],e=0;e<n.length&&!window.requestAnimationFrame;++e)window.requestAnimationFrame=window[n[e]+"RequestAnimationFrame"],window.cancelAnimationFrame=window[n[e]+"CancelAnimationFrame"]||window[n[e]+"CancelRequestAnimationFrame"];window.requestAnimationFrame||(window.requestAnimationFrame=function(n){var e=Date.now(),r=Math.max(0,16-(e-t)),i=window.setTimeout((function(){n(e+r)}),r);return t=e+r,i},window.cancelAnimationFrame=window.clearTimeout)}();var yt={f:null,i:function(t,n,e){return 0===t?n:1===t?e:{x:B(t,n.x,e.x),y:B(t,n.y,e.y)}},u:function(t,n){return function(e){var r=n(e);t.setAttribute("rx",ft(r.x)),t.setAttribute("ry",ft(r.y))}}},gt={f:null,i:function(t,n,e){return 0===t?n:1===t?e:{width:B(t,n.width,e.width),height:B(t,n.height,e.height)}},u:function(t,n){return function(e){var r=n(e);t.setAttribute("width",ft(r.width)),t.setAttribute("height",ft(r.height))}}};Object.freeze({M:2,L:2,Z:0,H:1,V:1,C:6,Q:4,T:2,S:4,A:7});var dt={},pt=null;function mt(t){var n=function(){if(pt)return pt;if("object"!==("undefined"==typeof document?"undefined":e(document))||!document.createElementNS)return{};var t=document.createElementNS("http://www.w3.org/2000/svg","svg");return t&&t.style?(t.style.position="absolute",t.style.opacity="0.01",t.style.zIndex="-9999",t.style.left="-9999px",t.style.width="1px",t.style.height="1px",pt={svg:t}):{}}().svg;if(!n)return function(t){return null};var r=document.createElementNS(n.namespaceURI,"path");r.setAttributeNS(null,"d",t),r.setAttributeNS(null,"fill","none"),r.setAttributeNS(null,"stroke","none"),n.appendChild(r);var i=r.getTotalLength();return function(t){var n=r.getPointAtLength(i*t);return{x:n.x,y:n.y}}}function bt(t){return dt[t]?dt[t]:dt[t]=mt(t)}function wt(t,n,e,r){if(!t||!r)return!1;var i=["M",t.x,t.y];if(n&&e&&(i.push("C"),i.push(n.x),i.push(n.y),i.push(e.x),i.push(e.y)),n?!e:e){var u=n||e;i.push("Q"),i.push(u.x),i.push(u.y)}return n||e||i.push("L"),i.push(r.x),i.push(r.y),i.join(" ")}function xt(t,n,e,r){var i=arguments.length>4&&void 0!==arguments[4]?arguments[4]:1,u=wt(t,n,e,r),o=bt(u);try{return o(i)}catch(t){return null}}function At(t,n,e){return t+(n-t)*e}function kt(t,n,e){var r=arguments.length>3&&void 0!==arguments[3]&&arguments[3],i={x:At(t.x,n.x,e),y:At(t.y,n.y,e)};return r&&(i.a=_t(t,n)),i}function _t(t,n){return Math.atan2(n.y-t.y,n.x-t.x)}function St(t,n,e,r){var i=1-r;return i*i*t+2*i*r*n+r*r*e}function Ot(t,n,e,r){return 2*(1-r)*(n-t)+2*r*(e-n)}function jt(t,n,e,r){var i=arguments.length>4&&void 0!==arguments[4]&&arguments[4],u=xt(t,n,null,e,r);return u||(u={x:St(t.x,n.x,e.x,r),y:St(t.y,n.y,e.y,r)}),i&&(u.a=Mt(t,n,e,r)),u}function Mt(t,n,e,r){return Math.atan2(Ot(t.y,n.y,e.y,r),Ot(t.x,n.x,e.x,r))}function Pt(t,n,e,r,i){var u=i*i;return i*u*(r-t+3*(n-e))+3*u*(t+e-2*n)+3*i*(n-t)+t}function Et(t,n,e,r,i){var u=1-i;return 3*(u*u*(n-t)+2*u*i*(e-n)+i*i*(r-e))}function It(t,n,e,r,i){var u=arguments.length>5&&void 0!==arguments[5]&&arguments[5],o=xt(t,n,e,r,i);return o||(o={x:Pt(t.x,n.x,e.x,r.x,i),y:Pt(t.y,n.y,e.y,r.y,i)}),u&&(o.a=Rt(t,n,e,r,i)),o}function Rt(t,n,e,r,i){return Math.atan2(Et(t.y,n.y,e.y,r.y,i),Et(t.x,n.x,e.x,r.x,i))}function Ft(t,n,e){var r=arguments.length>3&&void 0!==arguments[3]&&arguments[3];if(Tt(n)){if(qt(e))return jt(n,e.start,e,t,r)}else if(Tt(e)){if(Bt(n))return jt(n,n.end,e,t,r)}else{if(Bt(n))return qt(e)?It(n,n.end,e.start,e,t,r):jt(n,n.end,e,t,r);if(qt(e))return jt(n,e.start,e,t,r)}return kt(n,e,t,r)}function Nt(t,n,e){var r=Ft(t,n,e,!0);return r.a=function(t){return arguments.length>1&&void 0!==arguments[1]&&arguments[1]?t+Math.PI:t}(r.a)/m,r}function Tt(t){return!t.type||"corner"===t.type}function qt(t){return null!=t.start&&!Tt(t)}function Bt(t){return null!=t.end&&!Tt(t)}var Lt=new N;var Ct={f:ft,i:q},Dt={f:ft,i:L};function zt(t,n,e){return t.map((function(t){return function(t,n,e){var r=t.v;if(!r||"g"!==r.t||r.s||!r.v||!r.r)return t;var i=e.getElementById(r.r),u=i&&i.querySelectorAll("stop")||[];return r.s=r.v.map((function(t,n){var e=u[n]&&u[n].getAttribute("offset");return{c:t,o:e=d(parseInt(e)/100)}})),delete r.v,t}(t,0,e)}))}var Vt={gt:"gradientTransform",c:{x:"cx",y:"cy"},rd:"r",f:{x:"x1",y:"y1"},to:{x:"x2",y:"y2"}};function Gt(t,n,r,i,u,o,a,l){return zt(t,0,l),n=function(t,n,e){for(var r,i,u,o=t.length-1,a={},l=0;l<=o;l++)(r=t[l]).e&&(r.e=n(r.e)),r.v&&"g"===(i=r.v).t&&i.r&&(u=e.getElementById(i.r))&&(a[i.r]={e:u,s:u.querySelectorAll("stop")});return a}(t,i,l),function(i){var u=r(i,t,Yt);if(!u)return"none";if("c"===u.t)return ht(u.v);if("g"===u.t){if(!n[u.r])return vt(u.r);var o=n[u.r];return function(t,n){for(var e=t.s,r=e.length;r<n.length;r++){var i=e[e.length-1].cloneNode();i.id=Qt(i.id),t.e.appendChild(i),e=t.s=t.e.querySelectorAll("stop")}for(var u=0,o=e.length,a=n.length-1;u<o;u++)e[u].setAttribute("stop-color",ht(n[Math.min(u,a)].c)),e[u].setAttribute("offset",n[Math.min(u,a)].o)}(o,u.s),Object.keys(Vt).forEach((function(t){if(void 0!==u[t])if("object"!==e(Vt[t])){var n,r="gt"===t?(n=u[t],Array.isArray(n)?"matrix("+n.join(" ")+")":""):u[t],i=Vt[t];o.e.setAttribute(i,r)}else Object.keys(Vt[t]).forEach((function(n){if(void 0!==u[t][n]){var e=u[t][n],r=Vt[t][n];o.e.setAttribute(r,e)}}))})),vt(u.r)}return"none"}}function Yt(t,e,r){if(0===t)return e;if(1===t)return r;if(e&&r){var i=e.t;if(i===r.t)switch(e.t){case"c":return{t:i,v:z(t,e.v,r.v)};case"g":if(e.r===r.r){var u={t:i,s:$t(t,e.s,r.s),r:e.r};return e.gt&&r.gt&&(u.gt=function(t,n,e){var r=n.length;if(r!==e.length)return T(t,n,e);for(var i=new Array(r),u=0;u<r;u++)i[u]=q(t,n[u],e[u]);return i}(t,e.gt,r.gt)),e.c?(u.c=C(t,e.c,r.c),u.rd=B(t,e.rd,r.rd)):e.f&&(u.f=C(t,e.f,r.f),u.to=C(t,e.to,r.to)),u}}if("c"===e.t&&"g"===r.t||"c"===r.t&&"g"===e.t){var o="c"===e.t?e:r,a="g"===e.t?n({},e):n({},r),l=a.s.map((function(t){return{c:o.v,o:t.o}}));return a.s="c"===e.t?$t(t,l,a.s):$t(t,a.s,l),a}}return T(t,e,r)}function $t(t,n,e){if(n.length===e.length)return n.map((function(n,r){return Ut(t,n,e[r])}));for(var r=Math.max(n.length,e.length),i=[],u=0;u<r;u++){var o=Ut(t,n[Math.min(u,n.length-1)],e[Math.min(u,e.length-1)]);i.push(o)}return i}function Ut(t,n,e){return{o:L(t,n.o,e.o||0),c:z(t,n.c,e.c||{})}}function Qt(t){return t.replace(/-fill-([0-9]+)$/,(function(t,n){return"-fill-"+(+n+1)}))}var Ht={fill:Gt,"fill-opacity":Dt,stroke:Gt,"stroke-opacity":Dt,"stroke-width":Ct,"stroke-dashoffset":{f:ft,i:q},"stroke-dasharray":{f:function(t){var n=arguments.length>1&&void 0!==arguments[1]?arguments[1]:" ";return t&&t.length>0&&(t=t.map((function(t){return d(t,4)}))),ct(t,n)},i:function(t,n,e){var r,i,u,o=n.length,a=e.length;if(o!==a)if(0===o)n=V(o=a,0);else if(0===a)a=o,e=V(o,0);else{var l=(u=(r=o)*(i=a)/function(t,n){for(var e;n;)e=n,n=t%n,t=e;return t||1}(r,i))<0?-u:u;n=G(n,Math.floor(l/o)),e=G(e,Math.floor(l/a)),o=a=l}for(var s=[],f=0;f<o;f++)s.push(d(B(t,n[f],e[f])));return s}},opacity:Dt,transform:function(t,n,r,i){if(!(t=function(t,n){if(!t||"object"!==e(t))return null;var r=!1;for(var i in t)t.hasOwnProperty(i)&&(t[i]&&t[i].length?(t[i].forEach((function(t){t.e&&(t.e=n(t.e))})),r=!0):delete t[i]);return r?t:null}(t,i)))return null;var u=function(e,i,u){var o=arguments.length>3&&void 0!==arguments[3]?arguments[3]:null;return t[e]?r(i,t[e],u):n&&n[e]?n[e]:o};return n&&n.a&&t.o?function(n){var e=r(n,t.o,Nt);return Lt.recomposeSelf(e,u("r",n,q,0)+e.a,u("k",n,C),u("s",n,C),u("t",n,C)).toString()}:function(t){return Lt.recomposeSelf(u("o",t,Ft,null),u("r",t,q,0),u("k",t,C),u("s",t,C),u("t",t,C)).toString()}},r:Ct,"#size":gt,"#radius":yt,_:function(t,n){if(Array.isArray(t))for(var e=0;e<t.length;e++)this[t[e]]=n;else this[t]=n}},Jt=function(t){!function(t,n){if("function"!=typeof n&&null!==n)throw new TypeError("Super expression must either be null or a function");t.prototype=Object.create(n&&n.prototype,{constructor:{value:t,writable:!0,configurable:!0}}),n&&l(t,n)}(o,t);var n,e,i=(n=o,e=s(),function(){var t,r=a(n);if(e){var i=a(this).constructor;t=Reflect.construct(r,arguments,i)}else t=r.apply(this,arguments);return c(this,t)});function o(){return r(this,o),i.apply(this,arguments)}return u(o,null,[{key:"build",value:function(t){var n=h(a(o),"build",this).call(this,t,Ht);if(!n)return null;n.el,n.options,function(t,n,e){t.play()}(n.player)}}]),o}(st);return Jt.init(),Jt}));
(function(s,i,o,w,a,b){w[o]=w[o]||{};w[o][s]=w[o][s]||[];w[o][s].push(i);})('5c7f360c',{"root":"e0C4XLeKwTr1","version":"2022-05-04","animations":[{"elements":{"e0C4XLeKwTr6":{"transform":{"data":{"r":-0.751382,"t":{"x":-1.309006,"y":-0.676104}},"keys":{"o":[{"t":0,"v":{"x":1.309006,"y":0.676104,"type":"corner"}},{"t":1000,"v":{"x":-7.922548,"y":0.676104,"type":"corner"}},{"t":1400,"v":{"x":-7.922548,"y":0.676104,"type":"corner"}},{"t":2400,"v":{"x":1.309006,"y":0.676104,"type":"corner"}},{"t":2800,"v":{"x":1.309006,"y":0.676104,"type":"corner"}}],"s":[{"t":0,"v":{"x":0.886476,"y":1}},{"t":1000,"v":{"x":0.893074,"y":0.931437}},{"t":1400,"v":{"x":0.893074,"y":0.931437}},{"t":2400,"v":{"x":0.886476,"y":1}},{"t":2800,"v":{"x":0.886476,"y":1}}]}}},"e0C4XLeKwTr8":{"transform":{"data":{"t":{"x":-403.399384,"y":-595.468994}},"keys":{"o":[{"t":1000,"v":{"x":403.399384,"y":595.468994,"type":"corner"}},{"t":1200,"v":{"x":408.426018,"y":575.09321,"type":"corner"}},{"t":1300,"v":{"x":403.399384,"y":595.468994,"type":"corner"}},{"t":1340,"v":{"x":408.426018,"y":581.537992,"type":"corner"}},{"t":1400,"v":{"x":403.399384,"y":595.468994,"type":"corner"}}]}}},"e0C4XLeKwTr76":{"transform":{"data":{"o":{"x":333.357346,"y":241.469544,"type":"corner"},"t":{"x":-338.272583,"y":-239.244334}},"keys":{"r":[{"t":0,"v":-11.331833},{"t":1000,"v":-2.564776},{"t":1400,"v":-2.564776},{"t":2400,"v":-11.331833},{"t":2800,"v":-11.331833}]}}},"e0C4XLeKwTr99":{"transform":{"data":{"o":{"x":432.806008,"y":360.768436,"type":"corner"},"t":{"x":-433.151617,"y":-360.652918}},"keys":{"r":[{"t":0,"v":1.355745},{"t":1000,"v":11.973568},{"t":1400,"v":11.973568},{"t":2400,"v":1.355745},{"t":2800,"v":1.355745}]}}},"e0C4XLeKwTr149":{"transform":{"data":{"o":{"x":331.451987,"y":370.05976,"type":"corner"},"k":{"x":0.000057,"y":0},"t":{"x":-331.658448,"y":-367.341838}},"keys":{"r":[{"t":0,"v":-2.576944},{"t":1000,"v":0.858973},{"t":1400,"v":0.858973},{"t":2400,"v":-2.576944},{"t":2800,"v":-2.576944}]}}},"e0C4XLeKwTr192":{"transform":{"keys":{"o":[{"t":0,"v":{"x":-0.824763,"y":-10.1212,"type":"corner"}},{"t":1000,"v":{"x":8.869865,"y":-2.102599,"type":"corner","start":{"x":8.869865,"y":-2.102599},"end":{"x":8.869865,"y":-2.102599}}},{"t":1400,"v":{"x":8.869865,"y":-2.102599,"type":"corner","start":{"x":8.869865,"y":-2.102599}}},{"t":2400,"v":{"x":-0.824763,"y":-10.1212,"type":"corner"}},{"t":2800,"v":{"x":-0.824763,"y":-10.1212,"type":"corner"}}],"r":[{"t":0,"v":1.932724},{"t":1000,"v":-0.077457},{"t":1400,"v":-0.077457},{"t":2400,"v":1.932724},{"t":2800,"v":1.932724}]}}},"e0C4XLeKwTr245":{"transform":{"data":{"r":-0.499969},"keys":{"o":[{"t":0,"v":{"x":323.238,"y":391.26,"type":"corner"}},{"t":1000,"v":{"x":332.372271,"y":395.543768,"type":"corner"}},{"t":1400,"v":{"x":332.372271,"y":395.543768,"type":"corner"}},{"t":2400,"v":{"x":323.238,"y":391.26,"type":"corner"}},{"t":2800,"v":{"x":323.238,"y":391.26,"type":"corner"}}]}}},"e0C4XLeKwTr260":{"transform":{"data":{"t":{"x":-312.959396,"y":-294.6707}},"keys":{"o":[{"t":0,"v":{"x":312.959397,"y":294.6707,"type":"corner"}},{"t":1000,"v":{"x":317.999999,"y":294.6707,"type":"corner"}},{"t":1400,"v":{"x":317.999999,"y":294.6707,"type":"corner"}},{"t":2400,"v":{"x":312.959397,"y":294.6707,"type":"corner"}},{"t":2800,"v":{"x":312.959397,"y":294.6707,"type":"corner"}}]}}}},"s":"MXDA1ZDkwMzc3OThhODMc3Njg5N2U4NDgzMzcJ0ZjQ3NGU0NTQ1NDEzRNzc5N2U4NzdhNzg4OSTdlODRIODMzNzRmNDEY0MTM3N2U4OUU3YTgJ3NzY4OTdlODQ4Mzg4QMzc0ZjQ1NDEzNzdiNP2U4MTgxMzc0ZjQ2NDUEzNzc2ODE4OUY3YTgQ3ODM3Njg5UjdhMzc0PZjdiNzY4MTg4N2FONSDEzNzg4ODU3YTdhNzSkzN1g0ZjQ2UjQxMzcD3Yjg1ODgzNzRmNDY0XNTQ1VFM5Mg|"}],"options":"MYDAxMDg4MmY4MDgxNmHU3ZjgxMmY0N0syZjcG5N2M2ZTcxUjJmOGE/Q"},"__SVGATOR_PLAYER__",window)
]]></script>
</svg>
